<?xml version="1.0" encoding="utf-8"?>
<!-- Generator: Adobe Illustrator 28.0.0, SVG Export Plug-In . SVG Version: 6.00 Build 0)  -->
<svg version="1.1" id="Слой_1" xmlns="http://www.w3.org/2000/svg" xmlns:xlink="http://www.w3.org/1999/xlink" x="0px" y="0px"
	 viewBox="0 0 616.39 179.12" style="enable-background:new 0 0 616.39 179.12;" xml:space="preserve">
<style type="text/css">
	.st0{fill:#020203;}
	.st1{fill:url(#SVGID_1_);}
	.st2{fill:url(#SVGID_00000121245982507293811070000002391858152112671384_);}
	.st3{fill:url(#SVGID_00000144299899390949638460000017227409852151470486_);}
	.st4{fill:url(#SVGID_00000045621306228890224990000000131909408654790300_);}
	.st5{fill:url(#SVGID_00000005963297262475836530000004765999339488417675_);}
	.st6{fill:url(#SVGID_00000015348429586506777190000003400208284904036749_);}
	.st7{fill:url(#SVGID_00000035531233589839362630000005733448869898311605_);}
	.st8{fill:url(#SVGID_00000121963933972165741840000001215011030752355749_);}
	.st9{fill:url(#SVGID_00000038392080625802053760000010780277815393702331_);}
	.st10{fill:url(#SVGID_00000083775015136403890880000002838318149143218573_);}
	.st11{fill:url(#SVGID_00000161621227283200602230000013900856115190731937_);}
	.st12{fill:url(#SVGID_00000039114215925062068850000004066801963946798780_);}
	.st13{fill:url(#SVGID_00000147215049734491130380000008580478390030186668_);}
	.st14{fill:url(#SVGID_00000114786327026353588410000007463892385512651186_);}
	.st15{fill:url(#SVGID_00000088832198748320722230000003179611276248841901_);}
	.st16{fill:url(#SVGID_00000035521008595553852630000014546902380820246197_);}
	.st17{fill:url(#SVGID_00000176036808025726222800000009532574889706476944_);}
	.st18{fill:url(#SVGID_00000170988317556862435960000013853939392233792901_);}
</style>
<g>
	<g>
		<path class="st0" d="M222.04,69.3c0-0.67-0.05-1.24-0.15-1.7s-0.29-0.84-0.56-1.14s-0.65-0.51-1.14-0.64s-1.11-0.2-1.88-0.2
			c-0.5,0-1.06,0.03-1.69,0.08s-1.34,0.13-2.13,0.22l-0.23-2.18c1.53-0.23,2.95-0.44,4.27-0.62s2.54-0.34,3.69-0.47
			s2.22-0.23,3.22-0.29s1.95-0.09,2.84-0.09c2.56,0,4.97-0.02,7.22-0.06s4.24-0.08,5.98-0.12s3.16-0.08,4.27-0.12
			s1.8-0.06,2.06-0.06c0.72,0,1.27,0.17,1.65,0.5s0.57,0.86,0.57,1.56c0,0.28-0.03,0.83-0.08,1.64s-0.12,1.75-0.21,2.8
			s-0.18,2.17-0.29,3.34s-0.23,2.27-0.35,3.28l-2.25-0.07c0.03-0.59,0.05-1.15,0.07-1.66s0.02-1,0.02-1.45
			c0-1.31-0.08-2.38-0.23-3.2s-0.44-1.46-0.86-1.93s-0.98-0.79-1.7-0.96s-1.63-0.27-2.74-0.28c-0.81-0.02-1.57-0.03-2.26-0.04
			s-1.37-0.01-2.03-0.01h-4.8c-0.28,0-0.57,0-0.86,0s-0.59,0-0.9,0.01s-0.66,0.02-1.03,0.02s-0.79,0.02-1.24,0.04
			c-0.06,2.64-0.14,5.82-0.23,9.55s-0.2,7.89-0.33,12.48c2.03,0.09,3.85,0.16,5.45,0.2s3.07,0.06,4.39,0.06
			c1.62,0,3.07-0.05,4.32-0.15s2.45-0.26,3.57-0.48c0.25,0.69,0.38,1.3,0.38,1.85c0,0.45-0.14,0.84-0.42,1.15s-0.68,0.56-1.21,0.75
			s-1.16,0.32-1.9,0.41s-1.57,0.13-2.5,0.13c-1.64,0-3.5-0.09-5.57-0.27s-4.28-0.4-6.62-0.67c-0.06,1.92-0.13,3.92-0.2,6
			s-0.14,4.19-0.2,6.33s-0.13,4.3-0.2,6.49s-0.14,4.36-0.2,6.52l-5.55,0.7l-0.42-0.05c0.19-4.48,0.36-8.73,0.5-12.75
			s0.27-7.92,0.38-11.72s0.18-7.56,0.23-11.29S222.04,73.21,222.04,69.3z"/>
		<path class="st0" d="M265.07,52.94c-0.31,2.66-0.62,5.38-0.93,8.17s-0.59,5.61-0.87,8.46s-0.53,5.71-0.76,8.59
			s-0.44,5.71-0.61,8.5s-0.3,5.53-0.4,8.21s-0.14,5.27-0.14,7.73c0,1.55,0.02,2.88,0.06,3.98s0.1,2.05,0.19,2.81s0.2,1.38,0.35,1.85
			s0.33,0.83,0.55,1.08s0.48,0.42,0.77,0.5s0.65,0.13,1.05,0.13c0.75,0,1.56-0.11,2.43-0.34s1.75-0.54,2.64-0.95l0.45,1.22
			c-0.56,0.45-1.27,0.91-2.12,1.38s-1.75,0.9-2.68,1.29s-1.86,0.71-2.75,0.95s-1.68,0.36-2.33,0.36c-0.84,0-1.51-0.21-2-0.64
			s-0.87-1.13-1.12-2.1s-0.42-2.23-0.49-3.79s-0.11-3.45-0.11-5.68c0-0.81,0.02-1.97,0.07-3.48s0.11-3.26,0.2-5.26
			s0.18-4.19,0.29-6.56s0.23-4.83,0.35-7.37s0.26-5.1,0.4-7.69s0.28-5.09,0.42-7.5s0.27-4.69,0.4-6.83s0.24-4.03,0.35-5.67
			c0.02-0.38,0.12-0.7,0.33-0.97s0.46-0.49,0.79-0.66s0.68-0.29,1.08-0.36s0.8-0.12,1.21-0.12
			C263.05,52.19,264.04,52.44,265.07,52.94z"/>
		<path class="st0" d="M271.98,102.37c0-1.58,0.16-3.18,0.49-4.8s0.81-3.2,1.45-4.72s1.43-2.95,2.38-4.29s2.04-2.5,3.27-3.5
			s2.61-1.79,4.12-2.37s3.16-0.87,4.95-0.87c2,0,3.77,0.42,5.31,1.27s2.83,1.96,3.88,3.34s1.84,2.96,2.38,4.72s0.81,3.57,0.81,5.41
			c0,1.58-0.16,3.18-0.49,4.8s-0.82,3.2-1.46,4.72s-1.45,2.95-2.39,4.29s-2.04,2.5-3.27,3.5s-2.61,1.79-4.12,2.37
			s-3.16,0.87-4.95,0.87c-2,0-3.77-0.42-5.31-1.27s-2.83-1.96-3.87-3.34s-1.83-2.96-2.37-4.72S271.98,104.21,271.98,102.37z
			 M277.58,100.14c0,1.06,0.08,2.14,0.25,3.23s0.42,2.15,0.76,3.16s0.77,1.96,1.28,2.85s1.11,1.65,1.8,2.31s1.48,1.17,2.34,1.55
			s1.82,0.56,2.87,0.56c1.14,0,2.14-0.25,3.01-0.74s1.62-1.14,2.25-1.96s1.16-1.74,1.57-2.79s0.75-2.13,1-3.25s0.43-2.22,0.53-3.32
			s0.15-2.1,0.15-3.02c0-1.08-0.08-2.16-0.25-3.25s-0.42-2.13-0.76-3.14s-0.77-1.95-1.28-2.84s-1.11-1.65-1.8-2.3
			s-1.48-1.16-2.34-1.54s-1.82-0.56-2.87-0.56c-1.14,0-2.14,0.24-3.01,0.73s-1.62,1.13-2.25,1.95s-1.16,1.74-1.57,2.79
			s-0.75,2.12-1,3.23s-0.43,2.21-0.53,3.32S277.58,99.24,277.58,100.14z"/>
		<path class="st0" d="M331.47,116.62c-0.44-2.97-0.97-6.04-1.59-9.22s-1.31-6.38-2.06-9.6c-0.42,0.95-0.91,1.97-1.45,3.06
			s-1.13,2.2-1.75,3.35s-1.26,2.3-1.93,3.47s-1.34,2.3-2,3.4s-1.32,2.15-1.97,3.15s-1.26,1.91-1.84,2.72l-2.55-0.28
			c-0.2-1.5-0.44-3.07-0.71-4.72s-0.57-3.31-0.88-4.99s-0.64-3.33-0.97-4.96s-0.67-3.17-1.01-4.63s-0.66-2.8-0.97-4.03
			s-0.6-2.27-0.87-3.13c-0.31-1-0.61-1.81-0.88-2.44s-0.55-1.11-0.84-1.45s-0.6-0.58-0.93-0.7s-0.7-0.19-1.12-0.19
			c-0.5,0-1.04,0.05-1.61,0.16s-1.25,0.26-2.05,0.45l-0.35-1.69c2.09-0.75,3.91-1.32,5.44-1.72s2.62-0.6,3.28-0.6
			c0.39,0,0.76,0.07,1.11,0.21s0.68,0.38,1,0.73s0.62,0.81,0.91,1.41s0.59,1.34,0.87,2.25c0.2,0.66,0.44,1.48,0.7,2.46
			s0.54,2.09,0.83,3.32s0.59,2.55,0.9,3.97s0.62,2.9,0.91,4.43s0.58,3.09,0.86,4.68s0.52,3.16,0.74,4.72
			c0.34-0.53,0.74-1.19,1.2-1.97s0.93-1.62,1.42-2.53s0.98-1.84,1.48-2.8s0.95-1.89,1.37-2.8s0.79-1.75,1.1-2.53
			s0.54-1.45,0.68-1.99c0.09-0.38,0.16-0.75,0.2-1.11s0.06-0.73,0.06-1.09c0-0.48-0.03-1-0.09-1.56s-0.14-1.11-0.25-1.68
			s-0.21-1.12-0.34-1.69s-0.25-1.09-0.38-1.59c-0.11-0.42-0.16-0.76-0.16-1.01c0-0.5,0.16-0.89,0.48-1.16s0.86-0.41,1.61-0.41
			c0.5,0,1.01,0.07,1.54,0.2s1.01,0.32,1.46,0.55c0.5,1.94,1.01,3.97,1.54,6.11s1.04,4.29,1.55,6.47s0.99,4.34,1.44,6.49
			s0.86,4.21,1.22,6.2c1.09-1.73,2.17-3.51,3.22-5.32s1.99-3.62,2.81-5.43s1.48-3.6,1.98-5.38s0.75-3.52,0.75-5.2
			c0-0.7-0.05-1.39-0.14-2.05s-0.25-1.3-0.48-1.91s-0.54-1.19-0.93-1.73s-0.88-1.05-1.48-1.52l0.26-0.56
			c0.28-0.03,0.55-0.05,0.82-0.07s0.52-0.02,0.77-0.02c2.08,0,3.61,0.49,4.61,1.48s1.49,2.35,1.49,4.1c0,1.33-0.26,2.83-0.79,4.51
			s-1.22,3.44-2.09,5.29s-1.85,3.72-2.94,5.64s-2.21,3.77-3.36,5.57s-2.27,3.49-3.38,5.07s-2.08,2.97-2.94,4.16L331.47,116.62z"/>
		<path class="st0" d="M376.51,108.58c0.09,0.05,0.21,0.11,0.36,0.2s0.29,0.18,0.41,0.28s0.23,0.21,0.33,0.33s0.14,0.23,0.14,0.34
			c0,0.06-0.02,0.12-0.07,0.19c-0.88,1.22-1.82,2.28-2.82,3.18s-2.05,1.65-3.14,2.25s-2.19,1.05-3.32,1.34s-2.23,0.43-3.33,0.43
			c-1.88,0-3.59-0.38-5.16-1.15s-2.91-1.81-4.03-3.14s-2-2.89-2.64-4.68s-0.95-3.71-0.95-5.75c0-1.67,0.18-3.34,0.55-5.02
			s0.9-3.27,1.59-4.78s1.54-2.93,2.54-4.23s2.14-2.44,3.41-3.4s2.67-1.71,4.2-2.26s3.16-0.82,4.91-0.82c1.16,0,2.26,0.16,3.3,0.47
			s1.96,0.76,2.75,1.35s1.42,1.31,1.89,2.17s0.7,1.84,0.7,2.93c0,1.59-0.52,2.98-1.56,4.17s-2.47,2.2-4.3,3.02s-3.98,1.5-6.46,2
			s-5.15,0.89-8.03,1.14v0.4c0,2,0.25,3.83,0.76,5.48s1.21,3.07,2.1,4.25s1.94,2.1,3.14,2.75s2.5,0.98,3.89,0.98
			c1.41,0,2.85-0.35,4.32-1.04S375,110.14,376.51,108.58z M372.11,89.76c0-0.72-0.12-1.39-0.36-2.02s-0.58-1.17-1.01-1.63
			s-0.94-0.82-1.54-1.09s-1.23-0.4-1.92-0.4c-1.02,0-1.94,0.18-2.77,0.54s-1.57,0.85-2.23,1.46s-1.23,1.34-1.73,2.16
			s-0.93,1.69-1.28,2.61s-0.64,1.87-0.86,2.84s-0.38,1.91-0.47,2.84c2.22-0.16,4.21-0.43,5.96-0.81s3.24-0.88,4.45-1.48
			s2.14-1.32,2.78-2.16S372.11,90.84,372.11,89.76z"/>
		<path class="st0" d="M385.87,116.46l-0.38-0.02c0.12-1.48,0.24-3.1,0.35-4.85s0.21-3.53,0.3-5.33s0.18-3.59,0.25-5.37
			s0.13-3.43,0.19-4.97s0.09-2.92,0.12-4.14s0.04-2.18,0.04-2.88c0-0.58-0.02-1.08-0.07-1.5s-0.15-0.77-0.32-1.05
			s-0.4-0.49-0.71-0.62s-0.73-0.2-1.27-0.2c-0.27,0-0.54,0.02-0.82,0.05s-0.59,0.08-0.94,0.14s-0.73,0.14-1.16,0.25
			s-0.93,0.22-1.49,0.36l-0.35-1.69c2.59-0.94,4.7-1.6,6.3-1.98s2.7-0.57,3.26-0.57c1.03,0,1.77,0.3,2.21,0.9s0.67,1.5,0.67,2.68
			c0,0.11-0.02,0.43-0.05,0.96s-0.07,1.22-0.13,2.07s-0.12,1.84-0.2,2.96s-0.17,2.33-0.27,3.62s-0.21,2.63-0.34,4.03
			s-0.26,2.79-0.4,4.18l0.23,0.02c0.75-3.06,1.6-5.92,2.54-8.57s2.01-4.95,3.19-6.9s2.48-3.49,3.89-4.61s2.96-1.68,4.65-1.68
			c0.59,0,1.15,0.09,1.66,0.28s0.96,0.45,1.34,0.79s0.67,0.73,0.89,1.2s0.33,0.96,0.33,1.51c0,0.7-0.15,1.38-0.46,2.03
			s-0.79,1.22-1.44,1.72h-0.19c-0.66-0.55-1.28-0.94-1.86-1.18s-1.21-0.36-1.86-0.36c-0.7,0-1.38,0.13-2.04,0.4s-1.26,0.65-1.8,1.15
			c-0.89,0.81-1.72,1.89-2.48,3.22s-1.46,2.82-2.1,4.44s-1.2,3.33-1.71,5.12s-0.95,3.53-1.31,5.23s-0.66,3.29-0.89,4.78
			s-0.39,2.75-0.48,3.76L385.87,116.46z"/>
		<path class="st0" d="M422.66,68.24c0,0.66-0.02,1.5-0.05,2.52s-0.07,2.28-0.12,3.76s-0.1,3.21-0.16,5.19s-0.12,4.24-0.19,6.79
			c2.25-0.08,4.41-0.14,6.49-0.2s4.13-0.1,6.15-0.14s4.05-0.07,6.08-0.09s4.12-0.04,6.28-0.06c0.05-1.59,0.1-3.19,0.15-4.78
			s0.12-3.27,0.2-5.04s0.18-3.66,0.29-5.7s0.26-4.28,0.43-6.75c0.02-0.34,0.12-0.64,0.32-0.88s0.45-0.45,0.75-0.61
			s0.64-0.29,1.02-0.36s0.75-0.12,1.12-0.12c0.45,0,0.94,0.06,1.46,0.18s1.04,0.29,1.54,0.5c-0.23,2.56-0.44,5.02-0.62,7.36
			s-0.33,4.62-0.46,6.84s-0.23,4.41-0.33,6.57s-0.16,4.35-0.21,6.55s-0.08,4.45-0.11,6.75s-0.04,4.7-0.04,7.2
			c0,1.66,0.07,3.07,0.21,4.24s0.39,2.13,0.74,2.87s0.82,1.29,1.42,1.63s1.34,0.52,2.23,0.52c0.64,0,1.3-0.05,1.99-0.15
			s1.54-0.34,2.55-0.71l0.66,1.92c-1.12,0.48-2.17,0.91-3.14,1.27s-1.87,0.66-2.71,0.89s-1.61,0.41-2.33,0.53s-1.41,0.18-2.06,0.18
			c-0.89,0-1.67-0.17-2.34-0.5s-1.23-0.89-1.68-1.65s-0.78-1.77-1-3.02s-0.33-2.8-0.33-4.64v-5.32c0-1.23,0-2.41,0.01-3.53
			s0.02-2.2,0.04-3.25s0.03-2.06,0.05-3.05s0.04-1.96,0.07-2.93c-2.16,0-4.25,0.01-6.27,0.02s-4.05,0.05-6.07,0.09
			s-4.08,0.11-6.16,0.19s-4.25,0.17-6.5,0.28l-0.8,26.25l-5.55,0.7l-0.42-0.05c0.19-4.48,0.36-8.75,0.5-12.79s0.28-7.96,0.39-11.78
			s0.19-7.57,0.25-11.27s0.08-7.46,0.08-11.27c0-0.73-0.05-1.36-0.15-1.89s-0.29-0.95-0.57-1.28s-0.67-0.57-1.16-0.71
			s-1.12-0.22-1.89-0.22c-1.03,0-2.35,0.12-3.96,0.35l-0.23-1.95c2.27-0.58,4.19-1.01,5.77-1.3s2.9-0.43,3.96-0.43
			c1.05,0,1.87,0.14,2.46,0.41s1.04,0.68,1.32,1.22s0.46,1.2,0.53,1.98S422.66,67.24,422.66,68.24z"/>
		<path class="st0" d="M483.37,91.75c0-1.23-0.2-2.3-0.61-3.21s-0.94-1.65-1.59-2.23s-1.4-1.01-2.23-1.29s-1.66-0.42-2.48-0.42
			c-1.11,0-2.05,0.12-2.81,0.35s-1.39,0.55-1.86,0.96s-0.82,0.89-1.03,1.44s-0.32,1.15-0.32,1.79c0,0.75,0.14,1.5,0.41,2.26
			s0.68,1.5,1.21,2.21l-0.09,0.26c-0.89,0.44-1.79,0.66-2.7,0.66c-0.53,0-1.03-0.08-1.49-0.25s-0.86-0.4-1.2-0.71s-0.6-0.7-0.8-1.15
			s-0.29-0.96-0.29-1.52c0-0.92,0.22-1.79,0.67-2.6s1.04-1.55,1.77-2.23s1.59-1.27,2.55-1.8s1.97-0.98,3-1.35s2.07-0.65,3.11-0.84
			s2-0.29,2.89-0.29c1.64,0,3.04,0.22,4.21,0.66s2.11,1.07,2.84,1.91s1.26,1.85,1.59,3.04s0.5,2.53,0.5,4.03
			c0,1.03-0.04,2.16-0.13,3.4s-0.18,2.53-0.29,3.88s-0.21,2.75-0.29,4.18s-0.13,2.87-0.13,4.29c0,2.25,0.42,3.94,1.25,5.07
			s1.93,1.7,3.29,1.7c1.2,0,2.55-0.45,4.03-1.34l0.68,1.01c-1.05,1.05-2.19,1.84-3.42,2.39s-2.53,0.82-3.89,0.82
			c-1.02,0-1.95-0.17-2.81-0.52s-1.6-0.86-2.23-1.54s-1.11-1.54-1.45-2.57s-0.52-2.23-0.52-3.59c0-0.41,0.01-0.81,0.04-1.22
			s0.07-0.84,0.15-1.29h-0.14c-0.67,1.34-1.45,2.67-2.33,3.97s-1.85,2.47-2.91,3.49s-2.18,1.85-3.38,2.48s-2.45,0.95-3.76,0.95
			c-1.08,0-2.06-0.19-2.95-0.56s-1.65-0.89-2.29-1.55s-1.12-1.43-1.48-2.33s-0.53-1.88-0.53-2.94c0-1.38,0.25-2.62,0.76-3.75
			s1.21-2.13,2.11-3.02s1.97-1.66,3.22-2.31s2.61-1.19,4.08-1.62s3.02-0.75,4.66-0.96s3.31-0.32,5.02-0.32
			c0.11-0.98,0.2-1.94,0.27-2.86S483.37,92.86,483.37,91.75z M468.98,107.85c0,0.61,0.07,1.19,0.2,1.75s0.34,1.04,0.63,1.46
			s0.66,0.75,1.1,1s0.98,0.36,1.61,0.36c0.7,0,1.43-0.16,2.18-0.49s1.49-0.78,2.21-1.36s1.42-1.27,2.09-2.07s1.26-1.68,1.79-2.64
			s0.97-1.96,1.32-3.01s0.58-2.14,0.69-3.25c-1.16,0.03-2.3,0.11-3.45,0.22s-2.22,0.3-3.25,0.55s-1.97,0.58-2.85,0.98
			s-1.63,0.91-2.26,1.51s-1.13,1.31-1.49,2.13S468.98,106.78,468.98,107.85z"/>
		<path class="st0" d="M505.19,116.67c-0.2-1.5-0.45-3.07-0.73-4.72s-0.58-3.31-0.9-4.99s-0.66-3.34-1.01-4.98s-0.7-3.2-1.05-4.69
			s-0.69-2.85-1.02-4.1s-0.63-2.33-0.91-3.23c-0.3-0.92-0.58-1.68-0.84-2.26s-0.54-1.05-0.83-1.38s-0.61-0.57-0.95-0.69
			s-0.73-0.19-1.17-0.19c-0.5,0-1.04,0.05-1.61,0.16s-1.25,0.26-2.05,0.45l-0.35-1.69c0.94-0.34,1.86-0.66,2.75-0.95
			s1.73-0.54,2.5-0.74s1.45-0.36,2.04-0.47s1.06-0.16,1.41-0.16c0.42,0,0.81,0.07,1.16,0.22s0.69,0.4,1.02,0.76s0.64,0.85,0.94,1.46
			s0.59,1.39,0.89,2.33c0.2,0.62,0.44,1.43,0.71,2.43s0.56,2.12,0.86,3.39s0.61,2.64,0.93,4.11s0.63,3,0.93,4.58
			s0.57,3.18,0.83,4.82s0.48,3.24,0.67,4.82c0.78-1.14,1.57-2.32,2.36-3.54s1.55-2.45,2.27-3.7s1.4-2.51,2.03-3.79
			s1.17-2.54,1.64-3.79s0.84-2.48,1.1-3.68s0.4-2.37,0.4-3.49c0-1.41-0.25-2.73-0.74-3.96s-1.33-2.32-2.52-3.26l0.26-0.56
			c0.28-0.03,0.55-0.05,0.82-0.07s0.52-0.02,0.77-0.02c2.09,0,3.67,0.49,4.73,1.48s1.59,2.35,1.59,4.1c0,1.33-0.28,2.84-0.84,4.54
			s-1.3,3.47-2.23,5.33s-1.97,3.75-3.14,5.68s-2.37,3.79-3.59,5.59s-2.41,3.48-3.56,5.05s-2.18,2.93-3.07,4.07L505.19,116.67z"/>
		<path class="st0" d="M551.15,108.58c0.09,0.05,0.21,0.11,0.36,0.2s0.29,0.18,0.41,0.28s0.23,0.21,0.33,0.33s0.14,0.23,0.14,0.34
			c0,0.06-0.02,0.12-0.07,0.19c-0.88,1.22-1.82,2.28-2.82,3.18s-2.05,1.65-3.14,2.25s-2.19,1.05-3.32,1.34s-2.23,0.43-3.33,0.43
			c-1.88,0-3.59-0.38-5.16-1.15s-2.91-1.81-4.03-3.14s-2-2.89-2.64-4.68s-0.95-3.71-0.95-5.75c0-1.67,0.18-3.34,0.55-5.02
			s0.9-3.27,1.59-4.78s1.54-2.93,2.54-4.23s2.14-2.44,3.41-3.4s2.67-1.71,4.2-2.26s3.16-0.82,4.91-0.82c1.16,0,2.26,0.16,3.3,0.47
			s1.96,0.76,2.75,1.35s1.42,1.31,1.89,2.17s0.7,1.84,0.7,2.93c0,1.59-0.52,2.98-1.56,4.17s-2.47,2.2-4.3,3.02s-3.98,1.5-6.46,2
			s-5.15,0.89-8.03,1.14v0.4c0,2,0.25,3.83,0.76,5.48s1.21,3.07,2.1,4.25s1.94,2.1,3.14,2.75s2.5,0.98,3.89,0.98
			c1.41,0,2.85-0.35,4.32-1.04S549.63,110.14,551.15,108.58z M546.74,89.76c0-0.72-0.12-1.39-0.36-2.02s-0.58-1.17-1.01-1.63
			s-0.94-0.82-1.54-1.09s-1.23-0.4-1.92-0.4c-1.02,0-1.94,0.18-2.77,0.54s-1.57,0.85-2.23,1.46s-1.23,1.34-1.73,2.16
			s-0.93,1.69-1.28,2.61s-0.64,1.87-0.86,2.84s-0.38,1.91-0.47,2.84c2.22-0.16,4.21-0.43,5.96-0.81s3.24-0.88,4.45-1.48
			s2.14-1.32,2.78-2.16S546.74,90.84,546.74,89.76z"/>
		<path class="st0" d="M561.37,88.89c0-0.64-0.05-1.18-0.14-1.62s-0.24-0.79-0.43-1.04s-0.44-0.44-0.74-0.55s-0.65-0.16-1.05-0.16
			c-0.56,0-1.23,0.08-2.02,0.23s-1.67,0.37-2.67,0.63l-0.35-1.69c1.11-0.39,2.18-0.75,3.2-1.07s1.96-0.6,2.82-0.83
			s1.62-0.41,2.27-0.54s1.17-0.19,1.55-0.19c0.91,0,1.61,0.27,2.12,0.81s0.76,1.46,0.76,2.78c0,0.16-0.02,0.52-0.05,1.09
			s-0.07,1.29-0.13,2.17s-0.12,1.88-0.2,3.01s-0.17,2.34-0.27,3.62s-0.21,2.61-0.34,3.97s-0.26,2.73-0.4,4.09l0.14,0.02
			c1.19-4.03,2.46-7.43,3.82-10.21s2.74-5.02,4.15-6.75s2.8-2.97,4.2-3.74s2.72-1.15,3.98-1.15c0.88,0,1.72,0.16,2.53,0.49
			s1.54,0.85,2.17,1.57s1.14,1.64,1.51,2.78s0.56,2.5,0.56,4.11c0,0.47-0.03,1.1-0.08,1.89s-0.12,1.67-0.2,2.64s-0.17,2-0.27,3.08
			s-0.19,2.15-0.27,3.2s-0.14,2.04-0.2,2.99s-0.08,1.77-0.08,2.47c0,1.22,0.05,2.21,0.15,2.98s0.27,1.37,0.5,1.82
			s0.55,0.75,0.94,0.91s0.87,0.25,1.43,0.25c0.81,0,1.66-0.11,2.53-0.34s1.76-0.54,2.65-0.95l0.45,1.22
			c-0.56,0.45-1.27,0.91-2.13,1.38s-1.76,0.9-2.71,1.29s-1.89,0.71-2.82,0.95s-1.77,0.36-2.48,0.36c-0.84,0-1.51-0.23-1.99-0.68
			s-0.85-1.07-1.09-1.85s-0.4-1.7-0.47-2.74s-0.11-2.17-0.11-3.38c0-1.47,0.05-2.98,0.15-4.54s0.21-3.04,0.34-4.44
			s0.24-2.68,0.34-3.83s0.15-2.07,0.15-2.75c0-1.83-0.34-3.18-1.03-4.04s-1.6-1.3-2.74-1.3c-0.91,0-1.86,0.38-2.86,1.15
			s-2,1.82-2.99,3.15s-1.95,2.91-2.86,4.73s-1.74,3.79-2.47,5.91s-1.34,4.33-1.83,6.64s-0.79,4.62-0.91,6.94l-4.9,0.61l-0.38-0.02
			c0.12-1.48,0.24-3.1,0.35-4.85s0.21-3.53,0.3-5.33s0.18-3.59,0.25-5.37s0.13-3.43,0.19-4.97s0.09-2.92,0.12-4.14
			S561.37,89.6,561.37,88.89z"/>
	</g>
	<g>
		<g>
			<g>
				<g>
					<linearGradient id="SVGID_1_" gradientUnits="userSpaceOnUse" x1="127.8329" y1="76.8936" x2="200.3877" y2="76.8936">
						<stop  offset="0" style="stop-color:#EF81B2"/>
						<stop  offset="1" style="stop-color:#D41216"/>
					</linearGradient>
					<path class="st1" d="M153.12,41.83c1.6,2.33,2.86,4.88,3.88,7.52c1.01,2.64,1.77,5.4,2.21,8.2c0.45,2.8,0.66,5.66,0.48,8.51
						c-0.08,2.86-0.64,5.67-1.31,8.45l-0.78-0.6c3.1-1.75,6.3-3.2,9.59-4.47c3.29-1.26,6.67-2.31,10.11-3.12
						c3.43-0.84,6.96-1.32,10.5-1.56l2.66-0.11c0.89,0,1.78,0.06,2.67,0.08l1.33,0.05l1.33,0.15l2.65,0.31l1.65,0.19l-1.18,1.28
						c-4.41,4.78-7.72,10.77-9.54,17.06c-0.23,0.79-0.4,1.59-0.6,2.39l-0.32,1.28l-0.39,1.26c-0.57,1.65-1.32,3.23-2.17,4.74
						c-1.7,3.02-3.87,5.74-6.33,8.16c-4.94,4.82-11.24,8.26-18.02,9.66c-6.79,1.39-13.89,0.67-20.35-1.58l-0.08-0.03l-0.04-0.02
						c-3.07-1.74-5.56-4.05-7.67-6.76c-2.07-2.71-3.61-5.84-4.42-9.14c-0.87-3.3-0.99-6.74-0.67-10.08c0.34-3.35,1.2-6.62,2.33-9.76
						l0.91-2.33l1.02-2.28c0.7-1.52,1.55-2.99,2.52-4.36c0.97-1.37,2.07-2.65,3.26-3.83c1.2-1.19,2.51-2.2,3.71-3.31
						c2.44-2.2,4.73-4.58,6.74-7.18C150.72,47.97,152.52,45.1,153.12,41.83z M153.12,41.83c-0.47,3.29-2.14,6.29-4.04,8.98
						c-1.95,2.69-4.19,5.15-6.58,7.45c-1.19,1.17-2.47,2.22-3.58,3.39c-1.12,1.18-2.14,2.45-3.04,3.8c-0.9,1.35-1.7,2.76-2.34,4.25
						l-0.95,2.26l-0.85,2.3c-1.05,3.09-1.82,6.27-2.09,9.5c-0.24,3.22-0.07,6.48,0.81,9.56c0.81,3.1,2.34,5.97,4.27,8.5
						c1.95,2.5,4.42,4.72,7.12,6.22l-0.11-0.05c6.24,2.13,12.99,2.75,19.4,1.4c6.4-1.36,12.33-4.68,17.02-9.24
						c2.34-2.28,4.42-4.86,6.04-7.69c0.81-1.41,1.52-2.88,2.06-4.41l0.37-1.15l0.3-1.17c0.22-0.83,0.4-1.67,0.65-2.5
						c1.98-6.6,5.36-12.69,10.11-17.78l0.47,1.48c-3.4-0.47-6.83-0.75-10.28-0.55c-3.44,0.17-6.88,0.57-10.26,1.34
						c-3.38,0.73-6.72,1.69-9.99,2.88c-3.25,1.19-6.47,2.58-9.49,4.21l-1.09,0.59l0.31-1.19c0.69-2.69,1.32-5.42,1.49-8.21
						c0.26-2.78,0.14-5.59-0.22-8.37c-0.35-2.78-1.01-5.52-1.93-8.18C155.77,46.81,154.62,44.22,153.12,41.83z"/>
				</g>
				<g>
					
						<linearGradient id="SVGID_00000067932831218624675100000003286725351627838338_" gradientUnits="userSpaceOnUse" x1="158.4609" y1="59.4687" x2="175.5466" y2="59.4687">
						<stop  offset="0" style="stop-color:#EF81B2"/>
						<stop  offset="1" style="stop-color:#D41216"/>
					</linearGradient>
					<path style="fill:url(#SVGID_00000067932831218624675100000003286725351627838338_);" d="M172.12,68.42
						c0.46-2.81,0.9-5.59,1.2-8.36c0.12-1.39,0.25-2.76,0.26-4.13c0.01-1.37-0.03-2.72-0.24-4.03l1.19,0.82
						c-1.33,0.31-2.72,0.72-4.05,1.2c-1.35,0.44-2.66,1-3.97,1.57c-1.3,0.59-2.56,1.25-3.78,1.99c-1.24,0.73-2.37,1.61-3.52,2.54
						c0.81-1.23,1.81-2.35,2.93-3.34c1.14-0.96,2.35-1.85,3.65-2.59c1.29-0.76,2.65-1.38,4.03-1.95c1.4-0.53,2.79-1,4.3-1.36
						l1.05-0.25l0.15,1.07c0.41,2.98,0.12,5.9-0.47,8.71c-0.29,1.41-0.68,2.79-1.12,4.15C173.26,65.8,172.76,67.14,172.12,68.42z"/>
				</g>
				<g>
					
						<linearGradient id="SVGID_00000011020885863183806710000006806759041676322197_" gradientUnits="userSpaceOnUse" x1="130.6022" y1="126.8021" x2="142.4358" y2="126.8021">
						<stop  offset="0" style="stop-color:#EF81B2"/>
						<stop  offset="1" style="stop-color:#D41216"/>
					</linearGradient>
					<path style="fill:url(#SVGID_00000011020885863183806710000006806759041676322197_);" d="M132.66,144.73
						c-0.43-1.57-0.78-3.17-1.14-4.78c-0.28-1.61-0.46-3.25-0.65-4.88c-0.12-1.64-0.14-3.29-0.14-4.95l0.17-2.48
						c0.04-0.83,0.16-1.65,0.3-2.47c0.16-0.82,0.25-1.65,0.48-2.45l0.66-2.42c0.28-0.79,0.61-1.56,0.91-2.34
						c0.31-0.78,0.74-1.51,1.12-2.25c0.41-0.73,0.9-1.42,1.36-2.11c0.56-0.64,1.03-1.33,1.64-1.9c1.17-1.18,2.51-2.24,4.05-2.83
						c-1.31,0.98-2.39,2.17-3.3,3.47c-0.5,0.61-0.86,1.33-1.3,1.98c-0.34,0.72-0.76,1.38-1.07,2.11c-1.29,2.87-2.14,5.93-2.58,9.07
						c-0.34,1.55-0.37,3.15-0.56,4.73c-0.1,1.59-0.12,3.19-0.19,4.79c0.05,1.6,0.02,3.22,0.06,4.83
						C132.57,141.47,132.66,143.09,132.66,144.73z"/>
				</g>
				<g>
					
						<linearGradient id="SVGID_00000040561613437289987100000017296577440637528240_" gradientUnits="userSpaceOnUse" x1="134.3415" y1="128.5892" x2="146.1747" y2="128.5892">
						<stop  offset="0" style="stop-color:#EF81B2"/>
						<stop  offset="1" style="stop-color:#D41216"/>
					</linearGradient>
					<path style="fill:url(#SVGID_00000040561613437289987100000017296577440637528240_);" d="M145.17,110.22
						c-1.34,1-2.45,2.22-3.38,3.55c-0.51,0.63-0.88,1.36-1.31,2.03c-0.34,0.74-0.77,1.42-1.07,2.17c-1.29,2.95-2.14,6.09-2.55,9.31
						c-0.33,1.59-0.34,3.23-0.52,4.85c-0.08,1.63-0.09,3.27-0.14,4.91c0.07,1.64,0.05,3.29,0.12,4.94c0.1,1.65,0.21,3.31,0.23,4.99
						c-0.46-1.61-0.83-3.24-1.2-4.87c-0.3-1.65-0.5-3.32-0.71-4.99c-0.1-0.84-0.1-1.68-0.13-2.52c-0.02-0.84-0.08-1.69-0.06-2.53
						l0.15-2.54c0.03-0.42,0.04-0.85,0.09-1.27l0.19-1.26c0.16-0.84,0.24-1.68,0.46-2.51l0.65-2.48c0.27-0.81,0.6-1.61,0.9-2.41
						c0.3-0.8,0.75-1.55,1.12-2.31c0.4-0.75,0.9-1.46,1.37-2.18c0.56-0.66,1.04-1.37,1.66-1.96
						C142.24,111.92,143.61,110.84,145.17,110.22z"/>
				</g>
			</g>
			<g>
				
					<linearGradient id="SVGID_00000018209104768065856270000017931565993958250392_" gradientUnits="userSpaceOnUse" x1="135.6819" y1="130.4769" x2="156.4396" y2="130.4769">
					<stop  offset="0" style="stop-color:#EF81B2"/>
					<stop  offset="1" style="stop-color:#D41216"/>
				</linearGradient>
				<path style="fill:url(#SVGID_00000018209104768065856270000017931565993958250392_);" d="M136.69,133.1
					c-0.04-2.07,0.35-4.16,1.22-6.07c0.46-0.95,1.1-1.8,1.88-2.54c0.44-0.3,0.84-0.69,1.35-0.89c0.25-0.12,0.49-0.25,0.74-0.35
					l0.78-0.22c0.52-0.19,1.07-0.18,1.61-0.25c0.56-0.07,1.04-0.06,1.56-0.09c1.02-0.05,2.04-0.14,3.05-0.27
					c1.01-0.13,2-0.32,2.95-0.57c0.48-0.11,0.94-0.26,1.38-0.43c0.22-0.09,0.42-0.18,0.62-0.28c0.09-0.05,0.19-0.1,0.26-0.15
					c0.07-0.04,0.18-0.14,0.13-0.09l1.61,0.84c-0.26,1.45-0.61,2.8-1.01,4.18c-0.43,1.36-0.93,2.7-1.5,4.01
					c-1.18,2.6-2.73,5.1-4.86,7.1c-1.05,1-2.29,1.83-3.64,2.38c-0.67,0.29-1.38,0.46-2.09,0.57c-0.35,0.07-0.72,0.07-1.08,0.1
					c-0.4,0.01-0.74-0.09-1.09-0.18c-1.39-0.4-2.57-1.41-3.15-2.7C136.77,135.93,136.66,134.49,136.69,133.1z M136.69,133.1
					c0,1.38,0.14,2.82,0.8,4.05c0.65,1.22,1.83,2.13,3.16,2.38c0.32,0.06,0.68,0.11,0.98,0.07c0.33-0.07,0.67-0.1,0.99-0.2
					c0.65-0.18,1.29-0.4,1.87-0.73c1.18-0.62,2.22-1.49,3.09-2.51c0.88-1.01,1.62-2.14,2.25-3.33c0.65-1.18,1.22-2.41,1.72-3.67
					c0.52-1.25,0.96-2.54,1.36-3.85c0.41-1.29,0.77-2.63,1.05-3.93l1.61,0.84c-0.15,0.14-0.2,0.16-0.28,0.22
					c-0.08,0.05-0.15,0.1-0.22,0.14c-0.15,0.09-0.28,0.15-0.42,0.22c-0.28,0.12-0.55,0.22-0.82,0.31c-0.54,0.17-1.08,0.31-1.62,0.4
					c-1.07,0.19-2.14,0.27-3.2,0.3c-1.06,0.03-2.11,0.01-3.16-0.04c-1.07-0.05-2.04-0.14-3.02,0.02l-0.73,0.13
					c-0.24,0.07-0.46,0.17-0.7,0.25c-0.49,0.13-0.88,0.45-1.32,0.68c-0.8,0.6-1.49,1.37-1.98,2.28
					C137.1,128.94,136.7,131.04,136.69,133.1z"/>
			</g>
			<g>
				
					<linearGradient id="SVGID_00000134228690359664176580000007745112476475230908_" gradientUnits="userSpaceOnUse" x1="115.785" y1="115.3304" x2="133.2121" y2="115.3304">
					<stop  offset="0" style="stop-color:#EF81B2"/>
					<stop  offset="1" style="stop-color:#D41216"/>
				</linearGradient>
				<path style="fill:url(#SVGID_00000134228690359664176580000007745112476475230908_);" d="M131.76,120.51
					c0.48-2.01,0.59-4.15,0.05-6.13c-0.26-0.99-0.75-1.91-1.38-2.68c-0.37-0.34-0.68-0.73-1.12-0.98c-0.21-0.13-0.4-0.28-0.62-0.4
					l-0.68-0.3c-0.91-0.38-1.88-0.53-2.93-0.73c-1.03-0.2-2.06-0.43-3.08-0.71c-1.02-0.28-2.04-0.61-3.04-1.05
					c-0.5-0.22-0.99-0.48-1.48-0.77c-0.24-0.15-0.48-0.31-0.72-0.5c-0.12-0.1-0.24-0.19-0.36-0.31c-0.06-0.06-0.12-0.11-0.18-0.18
					c-0.07-0.08-0.11-0.11-0.22-0.28l1.76-0.43c-0.04,1.32,0,2.71,0.09,4.06c0.08,1.36,0.2,2.72,0.4,4.06
					c0.18,1.34,0.45,2.67,0.8,3.97c0.34,1.3,0.79,2.58,1.4,3.77c0.61,1.19,1.41,2.28,2.41,3.17c0.49,0.46,1.06,0.83,1.65,1.15
					c0.29,0.17,0.61,0.28,0.91,0.43c0.28,0.12,0.63,0.15,0.96,0.17c1.35,0.07,2.71-0.53,3.63-1.56
					C130.95,123.21,131.43,121.85,131.76,120.51z M131.76,120.51c-0.3,1.35-0.75,2.72-1.67,3.8c-0.87,1.11-2.25,1.81-3.7,1.87
					c-0.36,0.01-0.72,0.03-1.1-0.08c-0.34-0.12-0.7-0.2-1.02-0.35c-0.66-0.28-1.31-0.62-1.89-1.05c-1.18-0.85-2.18-1.95-2.97-3.17
					c-1.59-2.45-2.5-5.24-3.03-8.05c-0.24-1.41-0.41-2.83-0.51-4.25c-0.06-1.43-0.08-2.83,0.01-4.3l1.76-0.43
					c-0.04-0.06,0.05,0.07,0.1,0.12c0.06,0.07,0.14,0.14,0.22,0.21c0.16,0.14,0.34,0.28,0.53,0.42c0.39,0.27,0.8,0.52,1.23,0.74
					c0.87,0.46,1.78,0.89,2.73,1.25c0.95,0.37,1.92,0.69,2.9,0.99c0.5,0.16,0.97,0.26,1.5,0.46c0.51,0.2,1.04,0.32,1.5,0.63
					l0.71,0.4c0.22,0.16,0.42,0.34,0.64,0.51c0.45,0.32,0.75,0.78,1.1,1.18c0.58,0.91,1.01,1.89,1.22,2.91
					C132.4,116.39,132.29,118.51,131.76,120.51z"/>
			</g>
		</g>
		<g>
			<g>
				<g>
					
						<linearGradient id="SVGID_00000141453017785833536640000015816234435709831059_" gradientUnits="userSpaceOnUse" x1="18.3896" y1="121.4857" x2="94.7631" y2="121.4857">
						<stop  offset="0" style="stop-color:#EF81B2"/>
						<stop  offset="1" style="stop-color:#D41216"/>
					</linearGradient>
					<path style="fill:url(#SVGID_00000141453017785833536640000015816234435709831059_);" d="M42.77,89.35
						c0.19,2.82,0.79,5.59,1.6,8.27c0.81,2.69,1.89,5.3,3.24,7.75c1.34,2.46,2.9,4.8,4.74,6.9c1.77,2.16,3.89,4,6.03,5.77l0.95,0.79
						l-1.23,0.16c-3.41,0.45-6.83,1.22-10.16,2.17c-3.34,0.96-6.6,2.14-9.77,3.54c-3.18,1.37-6.2,3.07-9.09,4.95
						c-2.9,1.87-5.52,4.11-7.99,6.49l-0.49-1.47c6.82,1.33,13.14,4.26,18.62,8.44c0.68,0.52,1.33,1.09,1.99,1.64l0.93,0.77
						l0.97,0.71c1.33,0.92,2.76,1.69,4.25,2.36c2.98,1.34,6.17,2.2,9.41,2.67c6.48,0.93,13.22,0.13,19.2-2.53
						c5.98-2.67,11.08-7.15,14.87-12.53l-0.06,0.11c1.29-2.8,1.99-6.05,2.1-9.22c0.08-3.18-0.37-6.4-1.54-9.39
						c-1.1-3.01-2.88-5.75-4.96-8.21c-2.11-2.45-4.6-4.58-7.27-6.46l-2.03-1.36L75,100.4c-1.4-0.82-2.87-1.5-4.4-2.06
						c-1.52-0.57-3.09-0.99-4.69-1.29c-1.59-0.3-3.24-0.4-4.89-0.64c-3.28-0.45-6.55-1.13-9.7-2.16
						C48.2,93.18,45.09,91.74,42.77,89.35z M42.77,89.35c2.41,2.3,5.55,3.55,8.66,4.53c3.15,0.93,6.4,1.5,9.67,1.85
						c1.62,0.19,3.28,0.24,4.94,0.5c1.65,0.26,3.29,0.64,4.88,1.18c1.59,0.54,3.14,1.23,4.6,2.05l2.16,1.25l2.11,1.35
						c2.76,1.87,5.37,4.02,7.62,6.53c2.22,2.52,4.15,5.37,5.38,8.55c1.28,3.15,1.88,6.59,1.79,10c-0.11,3.42-0.77,6.76-2.23,9.97
						l-0.02,0.04l-0.05,0.07c-3.91,5.62-9.23,10.38-15.54,13.24c-6.31,2.85-13.43,3.77-20.26,2.77c-3.41-0.52-6.76-1.45-9.92-2.89
						c-1.58-0.72-3.11-1.55-4.54-2.56l-1.06-0.79l-1.01-0.85c-0.63-0.52-1.24-1.07-1.89-1.58c-5.17-4.02-11.37-6.92-17.74-8.19
						l-1.71-0.34l1.22-1.13l1.96-1.81l0.99-0.9l1.05-0.82c0.7-0.54,1.39-1.11,2.11-1.63l2.22-1.48c3.01-1.88,6.14-3.57,9.41-4.9
						c3.26-1.37,6.6-2.51,10.01-3.42c3.41-0.9,6.85-1.61,10.39-2.02l-0.28,0.95c-2.18-1.85-4.28-3.8-6.03-6.06
						c-1.82-2.2-3.33-4.63-4.61-7.17c-1.3-2.53-2.3-5.2-3.04-7.93C43.32,94.98,42.85,92.17,42.77,89.35z"/>
				</g>
				<g>
					
						<linearGradient id="SVGID_00000012436249942815910690000013220491336696114873_" gradientUnits="userSpaceOnUse" x1="30.0627" y1="114.3068" x2="48.7468" y2="114.3068">
						<stop  offset="0" style="stop-color:#EF81B2"/>
						<stop  offset="1" style="stop-color:#D41216"/>
					</linearGradient>
					<path style="fill:url(#SVGID_00000012436249942815910690000013220491336696114873_);" d="M43.02,122.03
						c-1.27-0.66-2.46-1.45-3.63-2.27c-1.15-0.84-2.28-1.73-3.34-2.7c-2.13-1.93-4.08-4.12-5.5-6.77l-0.51-0.95l0.99-0.42
						c1.43-0.6,2.83-1.04,4.28-1.43c1.45-0.35,2.92-0.65,4.41-0.79c1.48-0.17,2.99-0.16,4.48-0.05c1.49,0.15,2.96,0.46,4.33,0.98
						c-1.48-0.08-2.91-0.12-4.34,0.01c-1.43,0.12-2.84,0.32-4.23,0.61c-1.39,0.31-2.78,0.63-4.13,1.06
						c-1.35,0.4-2.73,0.88-3.98,1.41l0.48-1.36c0.6,1.18,1.37,2.3,2.18,3.4c0.81,1.1,1.73,2.14,2.64,3.19
						C39,118.04,40.99,120.03,43.02,122.03z"/>
				</g>
				<g>
					
						<linearGradient id="SVGID_00000058581985623339682540000007595790132875749038_" gradientUnits="userSpaceOnUse" x1="90.6195" y1="148.5081" x2="120.7959" y2="148.5081">
						<stop  offset="0" style="stop-color:#EF81B2"/>
						<stop  offset="1" style="stop-color:#D41216"/>
					</linearGradient>
					<path style="fill:url(#SVGID_00000058581985623339682540000007595790132875749038_);" d="M119.8,160.59
						c-0.97-1.33-1.85-2.69-2.73-4.05c-0.91-1.34-1.89-2.62-2.79-3.95c-1-1.26-1.96-2.54-2.97-3.76c-1.09-1.16-2.05-2.45-3.24-3.49
						c-2.2-2.28-4.69-4.25-7.42-5.82c-0.68-0.4-1.4-0.7-2.1-1.08c-0.73-0.27-1.45-0.64-2.21-0.84c-1.5-0.51-3.08-0.84-4.71-0.87
						c1.59-0.42,3.3-0.36,4.94-0.09c0.84,0.1,1.62,0.38,2.45,0.57c0.78,0.29,1.58,0.56,2.34,0.91c0.74,0.38,1.52,0.71,2.23,1.16
						c0.7,0.45,1.42,0.89,2.11,1.36l1.95,1.57c0.66,0.52,1.22,1.14,1.83,1.7c0.59,0.58,1.18,1.17,1.7,1.82l1.6,1.9
						c0.97,1.34,1.92,2.69,2.8,4.08c0.81,1.43,1.62,2.86,2.34,4.33C118.57,157.56,119.22,159.06,119.8,160.59z"/>
				</g>
				<g>
					
						<linearGradient id="SVGID_00000165207062058672107550000013160217086164812429_" gradientUnits="userSpaceOnUse" x1="88.3856" y1="152.1992" x2="118.9575" y2="152.1992">
						<stop  offset="0" style="stop-color:#EF81B2"/>
						<stop  offset="1" style="stop-color:#D41216"/>
					</linearGradient>
					<path style="fill:url(#SVGID_00000165207062058672107550000013160217086164812429_);" d="M89.39,140.02
						c1.63-0.42,3.38-0.35,5.05-0.06c0.85,0.11,1.66,0.4,2.5,0.61c0.79,0.31,1.61,0.58,2.39,0.96c0.76,0.4,1.56,0.74,2.27,1.21
						c0.71,0.47,1.44,0.92,2.14,1.42l1.98,1.62c0.66,0.54,1.23,1.18,1.85,1.76l0.89,0.91c0.29,0.31,0.55,0.65,0.82,0.97l1.62,1.96
						c0.51,0.67,0.96,1.39,1.44,2.08c0.47,0.7,0.96,1.39,1.37,2.12c0.81,1.47,1.64,2.94,2.36,4.45c0.66,1.55,1.32,3.08,1.89,4.65
						c-0.97-1.37-1.86-2.77-2.75-4.17c-0.91-1.38-1.9-2.7-2.81-4.07c-1-1.3-1.97-2.62-3-3.89c-1.1-1.2-2.07-2.53-3.27-3.61
						c-2.22-2.36-4.75-4.4-7.53-6.03c-0.69-0.42-1.43-0.73-2.14-1.12c-0.75-0.29-1.48-0.66-2.26-0.87
						C92.67,140.37,91.06,140.04,89.39,140.02z"/>
				</g>
			</g>
			<g>
				
					<linearGradient id="SVGID_00000044150403139032754410000000990025183242514074_" gradientUnits="userSpaceOnUse" x1="85.1929" y1="156.0626" x2="112.5543" y2="156.0626">
					<stop  offset="0" style="stop-color:#EF81B2"/>
					<stop  offset="1" style="stop-color:#D41216"/>
				</linearGradient>
				<path style="fill:url(#SVGID_00000044150403139032754410000000990025183242514074_);" d="M109.7,153.55
					c-1.22-1.66-2.78-3.13-4.64-4.01c-0.93-0.44-1.94-0.66-2.94-0.68c-0.5,0.07-1,0.04-1.47,0.22c-0.24,0.07-0.48,0.12-0.71,0.21
					l-0.66,0.33c-0.88,0.45-1.62,1.09-2.45,1.76c-0.82,0.66-1.66,1.29-2.53,1.89c-0.88,0.6-1.79,1.16-2.77,1.64
					c-0.49,0.24-1.01,0.44-1.54,0.63c-0.27,0.09-0.55,0.17-0.85,0.23c-0.15,0.03-0.3,0.06-0.47,0.07c-0.08,0.01-0.16,0.02-0.26,0.02
					c-0.1,0-0.16,0.01-0.36-0.01l0.81-1.62c0.98,0.88,2.07,1.76,3.16,2.56c1.09,0.82,2.2,1.6,3.36,2.31
					c1.14,0.73,2.33,1.39,3.55,1.96c1.21,0.58,2.48,1.06,3.78,1.37c1.3,0.31,2.65,0.4,3.97,0.21c0.67-0.08,1.31-0.27,1.94-0.51
					c0.32-0.11,0.61-0.28,0.92-0.42c0.27-0.14,0.52-0.39,0.75-0.63c0.93-0.98,1.35-2.41,1.16-3.78
					C111.24,155.91,110.52,154.66,109.7,153.55z M109.7,153.55c0.84,1.1,1.59,2.33,1.82,3.73c0.29,1.38-0.07,2.89-0.96,4.03
					c-0.23,0.29-0.45,0.57-0.77,0.79c-0.31,0.18-0.6,0.4-0.93,0.55c-0.64,0.32-1.32,0.6-2.03,0.76c-1.41,0.35-2.9,0.4-4.34,0.21
					c-2.9-0.36-5.62-1.48-8.1-2.89c-1.23-0.73-2.43-1.51-3.57-2.36c-1.13-0.88-2.22-1.77-3.27-2.78l0.81-1.62
					c-0.07-0.01,0.08,0.01,0.16,0c0.09,0,0.2-0.02,0.3-0.03c0.21-0.03,0.44-0.08,0.66-0.14c0.45-0.12,0.91-0.27,1.37-0.46
					c0.91-0.36,1.83-0.79,2.72-1.28c0.89-0.49,1.77-1.01,2.63-1.57c0.44-0.28,0.83-0.57,1.32-0.84c0.48-0.26,0.92-0.58,1.45-0.74
					l0.77-0.28c0.26-0.07,0.54-0.1,0.8-0.15c0.53-0.14,1.08-0.06,1.61-0.08c1.07,0.14,2.09,0.45,3.02,0.95
					C106.97,150.39,108.51,151.85,109.7,153.55z"/>
			</g>
			<g>
				
					<linearGradient id="SVGID_00000003784228240532114910000015666524720400917632_" gradientUnits="userSpaceOnUse" x1="100.9438" y1="130.6247" x2="117.3381" y2="130.6247">
					<stop  offset="0" style="stop-color:#EF81B2"/>
					<stop  offset="1" style="stop-color:#D41216"/>
				</linearGradient>
				<path style="fill:url(#SVGID_00000003784228240532114910000015666524720400917632_);" d="M106.29,140.46
					c-1.61-1.31-2.94-2.96-3.84-4.85c-0.43-0.96-0.66-2-0.72-3.08c0.05-0.53,0.02-1.09,0.2-1.6c0.07-0.26,0.12-0.53,0.21-0.79
					l0.34-0.74c0.2-0.52,0.55-0.93,0.85-1.39c0.31-0.47,0.63-0.83,0.94-1.25c0.62-0.82,1.21-1.65,1.76-2.5
					c0.55-0.85,1.04-1.73,1.47-2.62c0.22-0.44,0.41-0.89,0.56-1.33c0.07-0.22,0.14-0.44,0.19-0.65c0.02-0.1,0.04-0.21,0.05-0.3
					c0.02-0.07,0.01-0.23,0.01-0.16l1.68-0.68c0.94,1.13,1.74,2.28,2.53,3.47c0.76,1.21,1.46,2.45,2.09,3.74
					c1.22,2.58,2.13,5.38,2.28,8.3c0.08,1.45-0.08,2.93-0.54,4.31c-0.21,0.69-0.54,1.35-0.91,1.97c-0.17,0.31-0.42,0.59-0.62,0.89
					c-0.25,0.31-0.54,0.51-0.84,0.71c-1.2,0.81-2.74,1.05-4.09,0.66C108.5,142.22,107.32,141.38,106.29,140.46z M106.29,140.46
					c1.05,0.9,2.24,1.71,3.61,2.01c1.35,0.29,2.81-0.02,3.86-0.87c0.25-0.21,0.52-0.44,0.68-0.7c0.16-0.3,0.36-0.57,0.49-0.88
					c0.29-0.61,0.53-1.24,0.65-1.9c0.29-1.31,0.3-2.66,0.08-3.98c-0.2-1.32-0.59-2.62-1.08-3.87c-0.48-1.26-1.04-2.49-1.69-3.68
					c-0.62-1.21-1.32-2.38-2.06-3.52c-0.72-1.15-1.51-2.29-2.32-3.34l1.68-0.68c0.01,0.2,0,0.26-0.01,0.36
					c-0.01,0.09-0.02,0.18-0.04,0.26c-0.03,0.17-0.07,0.31-0.11,0.46c-0.08,0.29-0.18,0.56-0.29,0.83
					c-0.22,0.52-0.47,1.02-0.74,1.49c-0.55,0.94-1.18,1.81-1.84,2.64c-0.66,0.83-1.36,1.62-2.07,2.39
					c-0.73,0.78-1.43,1.47-1.94,2.31l-0.38,0.64c-0.1,0.22-0.17,0.46-0.26,0.69c-0.21,0.46-0.23,0.96-0.33,1.45
					c-0.06,1,0.08,2.02,0.46,2.98C103.38,137.45,104.72,139.12,106.29,140.46z"/>
			</g>
		</g>
		<g>
			<g>
				<g>
					
						<linearGradient id="SVGID_00000007398197480490983150000010990371054671800706_" gradientUnits="userSpaceOnUse" x1="47.455" y1="49.2933" x2="116.9866" y2="49.2933">
						<stop  offset="0" style="stop-color:#EF81B2"/>
						<stop  offset="1" style="stop-color:#D41216"/>
					</linearGradient>
					<path style="fill:url(#SVGID_00000007398197480490983150000010990371054671800706_);" d="M97.34,14.44
						c-1.79,2.18-3.26,4.6-4.51,7.12c-1.26,2.51-2.26,5.15-2.96,7.86c-0.71,2.71-1.18,5.48-1.28,8.27
						c-0.19,2.79,0.09,5.58,0.43,8.34l0.15,1.22l-1-0.72c-2.79-2.01-5.81-3.79-8.88-5.39c-3.09-1.59-6.28-2.97-9.54-4.12
						c-3.25-1.19-6.62-2.02-10.01-2.63c-3.39-0.63-6.84-0.8-10.27-0.76l0.65-1.4c4.06,5.65,6.64,12.12,7.76,18.92
						c0.14,0.85,0.22,1.71,0.32,2.56l0.15,1.2l0.22,1.19c0.34,1.58,0.85,3.13,1.48,4.63c1.25,3.01,2.98,5.83,5.01,8.4
						c4.08,5.12,9.53,9.16,15.71,11.33c6.19,2.16,12.96,2.4,19.42,1.08l-0.12,0.03c2.86-1.15,5.6-3.04,7.85-5.27
						c2.24-2.26,4.12-4.91,5.32-7.89c1.27-2.94,1.85-6.16,2.02-9.38c0.14-3.23-0.21-6.49-0.86-9.68l-0.55-2.39l-0.66-2.36
						c-0.45-1.56-1.06-3.06-1.78-4.51c-0.72-1.45-1.57-2.84-2.53-4.16c-0.95-1.31-2.09-2.51-3.12-3.82
						c-2.08-2.58-3.99-5.31-5.58-8.23C98.67,20.95,97.39,17.77,97.34,14.44z M97.34,14.44c0.18,3.32,1.6,6.39,3.2,9.24
						c1.66,2.84,3.63,5.48,5.77,7.98c1.05,1.25,2.22,2.42,3.26,3.75c1.03,1.32,1.95,2.73,2.74,4.21c0.79,1.48,1.44,3.04,1.94,4.64
						l0.72,2.39l0.6,2.43c0.73,3.26,1.16,6.61,1.07,9.98c-0.12,3.36-0.67,6.76-1.95,9.92c-1.23,3.17-3.15,6.09-5.55,8.51
						c-2.43,2.41-5.2,4.39-8.46,5.73l-0.04,0.02l-0.08,0.02c-6.7,1.41-13.83,1.22-20.39-1.02c-6.54-2.25-12.36-6.47-16.65-11.87
						c-2.13-2.71-3.93-5.69-5.24-8.9c-0.66-1.6-1.19-3.26-1.55-4.97l-0.23-1.3l-0.15-1.31c-0.1-0.81-0.17-1.63-0.3-2.44
						c-1.01-6.47-3.53-12.83-7.29-18.13l-1.01-1.42l1.66,0.02l2.67,0.03l1.34,0.02l1.33,0.12c0.88,0.09,1.77,0.15,2.65,0.26
						l2.63,0.45c3.48,0.69,6.91,1.61,10.21,2.89c3.31,1.24,6.53,2.7,9.63,4.38c3.1,1.69,6.09,3.53,8.94,5.66l-0.85,0.5
						c-0.31-2.84-0.51-5.7-0.23-8.55c0.18-2.85,0.75-5.66,1.56-8.38c0.79-2.73,1.89-5.36,3.23-7.86
						C93.88,18.92,95.46,16.55,97.34,14.44z"/>
				</g>
				<g>
					
						<linearGradient id="SVGID_00000056385249155566116710000010323213605553674150_" gradientUnits="userSpaceOnUse" x1="73.1965" y1="29.326" x2="89.8135" y2="29.326">
						<stop  offset="0" style="stop-color:#EF81B2"/>
						<stop  offset="1" style="stop-color:#D41216"/>
					</linearGradient>
					<path style="fill:url(#SVGID_00000056385249155566116710000010323213605553674150_);" d="M75.11,38.39
						c-0.47-1.35-0.79-2.74-1.08-4.14c-0.26-1.4-0.48-2.82-0.58-4.25c-0.23-2.86-0.14-5.8,0.64-8.7l0.28-1.04l1.01,0.38
						c1.45,0.54,2.77,1.18,4.09,1.89c1.29,0.74,2.57,1.53,3.75,2.45c1.19,0.9,2.28,1.94,3.29,3.03c0.98,1.13,1.83,2.36,2.48,3.68
						c-1.02-1.07-2.03-2.08-3.17-2.97c-1.12-0.89-2.28-1.71-3.5-2.46c-1.22-0.73-2.45-1.45-3.74-2.06c-1.26-0.64-2.59-1.23-3.87-1.7
						L76,21.85c-0.38,1.27-0.58,2.61-0.75,3.97c-0.16,1.36-0.21,2.74-0.27,4.13C74.93,32.74,75.01,35.55,75.11,38.39z"/>
				</g>
				<g>
					
						<linearGradient id="SVGID_00000018959740134981539870000000702949137934996917_" gradientUnits="userSpaceOnUse" x1="99.4018" y1="100.7679" x2="108.5211" y2="100.7679">
						<stop  offset="0" style="stop-color:#EF81B2"/>
						<stop  offset="1" style="stop-color:#D41216"/>
					</linearGradient>
					<path style="fill:url(#SVGID_00000018959740134981539870000000702949137934996917_);" d="M104.55,119.11
						c0.21-1.63,0.5-3.23,0.78-4.82c0.26-1.6,0.42-3.2,0.68-4.79c0.13-1.6,0.32-3.19,0.42-4.78c0.01-1.59,0.19-3.18,0.04-4.76
						c-0.04-3.17-0.5-6.31-1.41-9.32c-0.22-0.76-0.54-1.47-0.79-2.23c-0.35-0.7-0.61-1.46-1.03-2.13c-0.74-1.4-1.66-2.72-2.84-3.86
						c1.45,0.79,2.65,2.01,3.66,3.33c0.54,0.65,0.92,1.39,1.39,2.09c0.37,0.75,0.77,1.49,1.08,2.27c0.28,0.79,0.62,1.56,0.83,2.37
						c0.2,0.81,0.42,1.62,0.6,2.44l0.35,2.48c0.12,0.83,0.11,1.66,0.16,2.49c0.03,0.83,0.06,1.66-0.01,2.49l-0.14,2.48
						c-0.21,1.64-0.44,3.28-0.77,4.89c-0.4,1.6-0.78,3.2-1.26,4.76C105.73,116.07,105.18,117.61,104.55,119.11z"/>
				</g>
				<g>
					
						<linearGradient id="SVGID_00000110461602072378186550000001566689087325755010_" gradientUnits="userSpaceOnUse" x1="95.5214" y1="102.0552" x2="104.6408" y2="102.0552">
						<stop  offset="0" style="stop-color:#EF81B2"/>
						<stop  offset="1" style="stop-color:#D41216"/>
					</linearGradient>
					<path style="fill:url(#SVGID_00000110461602072378186550000001566689087325755010_);" d="M96.52,83.28
						c1.48,0.81,2.7,2.06,3.72,3.42c0.55,0.67,0.93,1.43,1.4,2.15c0.37,0.77,0.77,1.53,1.08,2.33c0.28,0.81,0.63,1.6,0.82,2.44
						c0.19,0.83,0.42,1.66,0.59,2.5l0.33,2.54c0.11,0.85,0.09,1.7,0.14,2.55l0.03,1.28c0,0.42-0.05,0.85-0.07,1.27l-0.17,2.54
						c-0.09,0.84-0.26,1.67-0.38,2.5c-0.14,0.83-0.25,1.67-0.45,2.49c-0.42,1.63-0.82,3.26-1.34,4.86
						c-0.58,1.58-1.15,3.15-1.81,4.68c0.23-1.67,0.55-3.29,0.86-4.92c0.28-1.63,0.47-3.27,0.75-4.89c0.16-1.63,0.36-3.26,0.49-4.89
						c0.02-1.63,0.23-3.26,0.1-4.87c0-3.24-0.44-6.47-1.34-9.55c-0.21-0.78-0.54-1.51-0.79-2.28c-0.35-0.72-0.62-1.5-1.04-2.19
						C98.67,85.8,97.72,84.45,96.52,83.28z"/>
				</g>
			</g>
			<g>
				
					<linearGradient id="SVGID_00000180335465017919110060000003975857745373526964_" gradientUnits="userSpaceOnUse" x1="84.2827" y1="103.0411" x2="103.1656" y2="103.0411">
					<stop  offset="0" style="stop-color:#EF81B2"/>
					<stop  offset="1" style="stop-color:#D41216"/>
				</linearGradient>
				<path style="fill:url(#SVGID_00000180335465017919110060000003975857745373526964_);" d="M102.03,107.06
					c0.25-2.05,0.12-4.19-0.63-6.1c-0.37-0.96-0.96-1.81-1.67-2.51c-0.41-0.29-0.76-0.65-1.22-0.85c-0.22-0.11-0.43-0.24-0.66-0.33
					l-0.71-0.22c-0.95-0.28-1.92-0.31-2.99-0.4c-1.05-0.08-2.09-0.2-3.14-0.36c-1.05-0.17-2.1-0.38-3.14-0.71
					c-0.52-0.16-1.04-0.37-1.55-0.6c-0.26-0.12-0.52-0.26-0.77-0.42c-0.13-0.09-0.26-0.16-0.39-0.27c-0.07-0.05-0.13-0.1-0.2-0.16
					c-0.08-0.07-0.12-0.1-0.25-0.25l1.7-0.63c0.11,1.32,0.3,2.69,0.54,4.03c0.23,1.34,0.5,2.68,0.86,3.99
					c0.33,1.32,0.74,2.61,1.24,3.86c0.48,1.26,1.07,2.47,1.81,3.59c0.74,1.12,1.65,2.11,2.75,2.88c0.54,0.4,1.14,0.7,1.76,0.96
					c0.31,0.14,0.64,0.21,0.96,0.32c0.29,0.08,0.65,0.07,0.98,0.06c1.35-0.08,2.63-0.83,3.44-1.96
					C101.53,109.84,101.86,108.44,102.03,107.06z M102.03,107.06c-0.14,1.38-0.44,2.79-1.23,3.96c-0.74,1.2-2.03,2.05-3.47,2.27
					c-0.36,0.05-0.71,0.11-1.1,0.04c-0.35-0.08-0.72-0.12-1.06-0.24c-0.69-0.2-1.37-0.47-2-0.84c-1.27-0.71-2.39-1.7-3.3-2.82
					c-1.86-2.25-3.07-4.93-3.92-7.66c-0.4-1.37-0.73-2.77-0.98-4.17c-0.22-1.42-0.4-2.8-0.47-4.27l1.7-0.63
					c-0.05-0.05,0.06,0.06,0.12,0.11c0.07,0.06,0.16,0.12,0.24,0.19c0.18,0.12,0.37,0.24,0.58,0.36c0.41,0.22,0.85,0.43,1.31,0.6
					c0.91,0.36,1.87,0.68,2.85,0.94c0.98,0.26,1.98,0.48,2.99,0.66c0.51,0.1,0.99,0.15,1.54,0.29c0.53,0.14,1.07,0.2,1.56,0.46
					l0.75,0.32c0.24,0.13,0.46,0.29,0.69,0.44c0.48,0.26,0.83,0.69,1.23,1.05c0.68,0.83,1.21,1.76,1.54,2.76
					C102.21,102.89,102.33,105.01,102.03,107.06z"/>
			</g>
			<g>
				
					<linearGradient id="SVGID_00000054234457197382971960000001054557043541372306_" gradientUnits="userSpaceOnUse" x1="107.4098" y1="91.34" x2="126.519" y2="91.34">
					<stop  offset="0" style="stop-color:#EF81B2"/>
					<stop  offset="1" style="stop-color:#D41216"/>
				</linearGradient>
				<path style="fill:url(#SVGID_00000054234457197382971960000001054557043541372306_);" d="M108.52,95.2
					c-0.27-2.06-0.11-4.17,0.53-6.17c0.35-0.99,0.89-1.91,1.58-2.74c0.4-0.35,0.76-0.78,1.24-1.03c0.23-0.14,0.46-0.3,0.7-0.43
					l0.76-0.31c0.5-0.24,1.04-0.3,1.57-0.43c0.55-0.13,1.03-0.18,1.54-0.27c1.01-0.17,2.02-0.37,3-0.61
					c0.99-0.24,1.95-0.55,2.87-0.89c0.46-0.17,0.9-0.37,1.32-0.58c0.21-0.11,0.4-0.23,0.58-0.35c0.08-0.06,0.18-0.12,0.24-0.18
					c0.06-0.04,0.17-0.16,0.12-0.11l1.69,0.65c-0.09,1.46-0.29,2.85-0.54,4.26c-0.27,1.4-0.62,2.78-1.04,4.15
					c-0.88,2.72-2.14,5.38-4.03,7.6c-0.94,1.11-2.07,2.08-3.35,2.77c-0.63,0.36-1.32,0.61-2.01,0.81c-0.34,0.11-0.71,0.15-1.06,0.22
					c-0.39,0.06-0.74,0-1.1-0.06c-1.43-0.24-2.71-1.11-3.43-2.32C108.92,98,108.64,96.58,108.52,95.2z M108.52,95.2
					c0.15,1.38,0.46,2.78,1.25,3.93c0.78,1.14,2.06,1.91,3.41,2.01c0.33,0.02,0.69,0.04,0.98-0.04c0.32-0.11,0.65-0.17,0.96-0.31
					c0.63-0.25,1.23-0.54,1.78-0.93c1.1-0.75,2.04-1.73,2.79-2.84c0.76-1.1,1.37-2.31,1.87-3.56c0.51-1.24,0.95-2.53,1.3-3.84
					c0.37-1.3,0.67-2.63,0.92-3.97c0.26-1.33,0.47-2.7,0.6-4.02l1.69,0.65c-0.13,0.15-0.18,0.18-0.26,0.25
					c-0.07,0.06-0.14,0.11-0.2,0.16c-0.13,0.1-0.26,0.18-0.39,0.26c-0.26,0.15-0.52,0.29-0.78,0.4c-0.52,0.23-1.04,0.43-1.56,0.58
					c-1.05,0.31-2.1,0.51-3.15,0.66c-1.05,0.15-2.1,0.25-3.15,0.32c-1.07,0.07-2.05,0.09-3,0.35l-0.71,0.21
					c-0.23,0.09-0.44,0.22-0.66,0.32c-0.47,0.19-0.82,0.54-1.23,0.83c-0.72,0.69-1.33,1.53-1.71,2.48
					C108.46,91.01,108.3,93.15,108.52,95.2z"/>
			</g>
		</g>
	</g>
	<g>
		<path class="st0" d="M223.07,141.8c-0.77-0.44-1.38-1.04-1.82-1.81s-0.67-1.65-0.67-2.62s0.22-1.85,0.67-2.62s1.05-1.37,1.82-1.8
			c0.77-0.43,1.64-0.65,2.6-0.65s1.83,0.22,2.6,0.65s1.38,1.03,1.82,1.8c0.44,0.77,0.66,1.65,0.66,2.62s-0.22,1.85-0.66,2.62
			c-0.44,0.77-1.04,1.38-1.82,1.81c-0.77,0.44-1.64,0.66-2.6,0.66S223.84,142.23,223.07,141.8z M227.58,140.77
			c0.56-0.32,1-0.78,1.32-1.38c0.32-0.6,0.47-1.27,0.47-2.03s-0.16-1.44-0.47-2.03c-0.32-0.59-0.76-1.05-1.32-1.38
			c-0.56-0.32-1.2-0.48-1.91-0.48c-0.71,0-1.35,0.16-1.91,0.48c-0.56,0.32-1.01,0.78-1.33,1.38c-0.32,0.6-0.48,1.27-0.48,2.03
			s0.16,1.44,0.48,2.03c0.32,0.59,0.77,1.05,1.33,1.38c0.56,0.32,1.2,0.48,1.91,0.48C226.38,141.26,227.02,141.1,227.58,140.77z"/>
		<path class="st0" d="M243.9,133.23c0.73,0.41,1.29,0.99,1.7,1.73c0.41,0.74,0.61,1.59,0.61,2.54c0,0.98-0.21,1.84-0.64,2.59
			c-0.42,0.75-1.02,1.34-1.78,1.76c-0.76,0.42-1.63,0.63-2.62,0.63c-1.66,0-2.94-0.58-3.86-1.75c-0.91-1.17-1.37-2.77-1.37-4.83
			c0-2.14,0.41-3.78,1.23-4.92c0.82-1.14,2.09-1.91,3.83-2.32l4.48-1.03l0.23,1.24l-4.22,0.97c-1.43,0.32-2.48,0.88-3.15,1.68
			c-0.67,0.8-1.04,1.99-1.1,3.56c0.41-0.77,0.97-1.38,1.69-1.81c0.72-0.44,1.55-0.66,2.49-0.66
			C242.35,132.61,243.17,132.82,243.9,133.23z M243.08,140.87c0.55-0.32,0.98-0.78,1.29-1.36c0.31-0.58,0.46-1.24,0.46-1.98
			s-0.15-1.38-0.46-1.94c-0.3-0.56-0.73-0.99-1.28-1.3s-1.18-0.47-1.89-0.47c-0.71,0-1.34,0.16-1.89,0.47
			c-0.55,0.31-0.98,0.74-1.29,1.3c-0.31,0.56-0.46,1.2-0.46,1.94s0.15,1.39,0.46,1.98c0.31,0.58,0.74,1.04,1.3,1.36
			c0.56,0.32,1.18,0.49,1.88,0.49C241.91,141.35,242.53,141.19,243.08,140.87z"/>
		<path class="st0" d="M252.04,132.36h1.35v7.94l6.67-7.94h1.2v9.99h-1.35v-7.94l-6.65,7.94h-1.22V132.36z"/>
		<path class="st0" d="M275.75,132.93c0.76,0.42,1.35,1.02,1.79,1.79c0.43,0.77,0.65,1.65,0.65,2.64c0,1-0.22,1.89-0.65,2.66
			c-0.43,0.77-1.02,1.37-1.78,1.79c-0.75,0.42-1.61,0.64-2.55,0.64c-0.81,0-1.54-0.17-2.2-0.5c-0.65-0.33-1.19-0.83-1.61-1.47v5.57
			h-1.35v-13.68h1.29v1.98c0.41-0.66,0.94-1.17,1.61-1.52s1.42-0.53,2.25-0.53C274.15,132.29,274.99,132.5,275.75,132.93z
			 M275.01,140.77c0.57-0.32,1.02-0.78,1.34-1.38c0.32-0.6,0.48-1.27,0.48-2.03s-0.16-1.43-0.48-2.02
			c-0.32-0.59-0.77-1.05-1.34-1.38c-0.57-0.33-1.2-0.49-1.9-0.49c-0.71,0-1.35,0.17-1.91,0.49c-0.56,0.33-1.01,0.79-1.33,1.38
			s-0.48,1.26-0.48,2.02s0.16,1.44,0.48,2.03c0.32,0.59,0.77,1.05,1.33,1.38s1.2,0.48,1.91,0.48
			C273.81,141.26,274.44,141.1,275.01,140.77z"/>
		<path class="st0" d="M290.42,133.27c0.7,0.65,1.04,1.62,1.04,2.9v6.19h-1.29v-1.56c-0.3,0.52-0.75,0.92-1.34,1.22
			c-0.59,0.29-1.29,0.44-2.1,0.44c-1.11,0-2-0.27-2.66-0.8c-0.66-0.53-0.99-1.24-0.99-2.11c0-0.85,0.31-1.53,0.92-2.05
			s1.59-0.78,2.94-0.78h3.17v-0.61c0-0.86-0.24-1.52-0.72-1.97c-0.48-0.45-1.18-0.67-2.11-0.67c-0.63,0-1.24,0.1-1.82,0.31
			c-0.58,0.21-1.08,0.5-1.5,0.87l-0.61-1.01c0.51-0.43,1.11-0.76,1.82-1c0.71-0.23,1.46-0.35,2.24-0.35
			C288.72,132.29,289.73,132.61,290.42,133.27z M288.9,140.87c0.54-0.35,0.95-0.85,1.22-1.51v-1.63h-3.13
			c-1.71,0-2.56,0.6-2.56,1.79c0,0.58,0.22,1.04,0.67,1.38c0.44,0.34,1.06,0.5,1.86,0.5C287.71,141.39,288.36,141.22,288.9,140.87z"
			/>
		<path class="st0" d="M298,132.36h1.35v7.94l6.67-7.94h1.2v9.99h-1.35v-7.94l-6.65,7.94H298V132.36z M300.49,130.27
			c-0.51-0.43-0.77-1.04-0.78-1.82h0.97c0.01,0.49,0.19,0.89,0.53,1.19s0.79,0.45,1.33,0.45s0.99-0.15,1.34-0.45
			c0.35-0.3,0.53-0.69,0.54-1.19h0.97c-0.01,0.79-0.28,1.39-0.79,1.82s-1.2,0.65-2.06,0.65S301,130.71,300.49,130.27z"/>
		<path class="st0" d="M323.47,141.81c-0.78-0.43-1.39-1.04-1.83-1.82c-0.44-0.78-0.67-1.66-0.67-2.63s0.22-1.85,0.67-2.62
			s1.05-1.37,1.83-1.8c0.78-0.43,1.66-0.65,2.65-0.65c0.86,0,1.63,0.17,2.31,0.5c0.68,0.33,1.21,0.83,1.61,1.47l-1.01,0.68
			c-0.33-0.49-0.75-0.86-1.25-1.11s-1.06-0.37-1.65-0.37c-0.72,0-1.37,0.16-1.95,0.48c-0.58,0.32-1.03,0.78-1.35,1.38
			c-0.32,0.6-0.48,1.27-0.48,2.03c0,0.77,0.16,1.45,0.48,2.04s0.77,1.04,1.35,1.37s1.23,0.48,1.95,0.48c0.6,0,1.15-0.12,1.65-0.36
			c0.51-0.24,0.92-0.61,1.25-1.1l1.01,0.68c-0.39,0.65-0.93,1.14-1.61,1.47c-0.68,0.34-1.45,0.5-2.3,0.5
			C325.13,142.45,324.25,142.24,323.47,141.81z"/>
		<path class="st0" d="M344.15,137.78h-8.36c0.08,1.04,0.48,1.88,1.2,2.52s1.63,0.96,2.74,0.96c0.62,0,1.19-0.11,1.71-0.33
			c0.52-0.22,0.97-0.55,1.35-0.98l0.76,0.87c-0.44,0.53-1,0.94-1.66,1.22s-1.4,0.42-2.19,0.42c-1.03,0-1.94-0.22-2.73-0.66
			c-0.79-0.44-1.41-1.04-1.85-1.81s-0.67-1.65-0.67-2.62s0.21-1.85,0.64-2.62c0.42-0.77,1.01-1.37,1.75-1.8
			c0.74-0.43,1.57-0.65,2.5-0.65s1.75,0.22,2.49,0.65c0.73,0.43,1.31,1.03,1.73,1.79c0.42,0.77,0.63,1.64,0.63,2.63L344.15,137.78z
			 M336.91,134.37c-0.65,0.61-1.02,1.42-1.11,2.4h7.09c-0.09-0.99-0.46-1.79-1.11-2.4s-1.47-0.92-2.44-0.92
			C338.37,133.45,337.56,133.76,336.91,134.37z"/>
		<path class="st0" d="M357.8,132.93c0.76,0.42,1.35,1.02,1.79,1.79c0.43,0.77,0.65,1.65,0.65,2.64c0,1-0.22,1.89-0.65,2.66
			c-0.43,0.77-1.02,1.37-1.78,1.79c-0.75,0.42-1.61,0.64-2.55,0.64c-0.81,0-1.54-0.17-2.2-0.5c-0.65-0.33-1.19-0.83-1.61-1.47v5.57
			h-1.35v-13.68h1.29v1.98c0.41-0.66,0.94-1.17,1.61-1.52s1.42-0.53,2.25-0.53C356.19,132.29,357.04,132.5,357.8,132.93z
			 M357.06,140.77c0.57-0.32,1.02-0.78,1.34-1.38c0.32-0.6,0.48-1.27,0.48-2.03s-0.16-1.43-0.48-2.02
			c-0.32-0.59-0.77-1.05-1.34-1.38c-0.57-0.33-1.2-0.49-1.9-0.49c-0.71,0-1.35,0.17-1.91,0.49c-0.56,0.33-1.01,0.79-1.33,1.38
			s-0.48,1.26-0.48,2.02s0.16,1.44,0.48,2.03c0.32,0.59,0.77,1.05,1.33,1.38s1.2,0.48,1.91,0.48
			C355.85,141.26,356.48,141.1,357.06,140.77z"/>
		<path class="st0" d="M376.49,141.18v3.69h-1.27v-2.51h-9.14v-9.99h1.35v8.82h6.1v-8.82h1.35v8.82H376.49z"/>
		<path class="st0" d="M390.76,137.78h-8.36c0.08,1.04,0.48,1.88,1.2,2.52s1.63,0.96,2.74,0.96c0.62,0,1.19-0.11,1.71-0.33
			c0.52-0.22,0.97-0.55,1.35-0.98l0.76,0.87c-0.44,0.53-1,0.94-1.66,1.22s-1.4,0.42-2.19,0.42c-1.03,0-1.94-0.22-2.73-0.66
			c-0.79-0.44-1.41-1.04-1.85-1.81s-0.67-1.65-0.67-2.62s0.21-1.85,0.64-2.62c0.42-0.77,1.01-1.37,1.75-1.8
			c0.74-0.43,1.57-0.65,2.5-0.65s1.75,0.22,2.49,0.65c0.73,0.43,1.31,1.03,1.73,1.79c0.42,0.77,0.63,1.64,0.63,2.63L390.76,137.78z
			 M383.51,134.37c-0.65,0.61-1.02,1.42-1.11,2.4h7.09c-0.09-0.99-0.46-1.79-1.11-2.4s-1.47-0.92-2.44-0.92
			C384.97,133.45,384.16,133.76,383.51,134.37z"/>
		<path class="st0" d="M407.88,132.36v9.99h-1.23v-7.9l-4.05,6.69h-0.61l-4.05-6.71v7.92h-1.24v-9.99h1.37l4.24,7.2l4.31-7.2H407.88
			z"/>
		<path class="st0" d="M415.5,140.68c0.19,0.2,0.29,0.44,0.29,0.73c0,0.15-0.02,0.32-0.07,0.49c-0.04,0.18-0.11,0.38-0.2,0.61
			l-0.8,2.62h-0.91l0.65-2.75c-0.2-0.06-0.37-0.18-0.49-0.35s-0.19-0.38-0.19-0.62c0-0.29,0.09-0.54,0.28-0.73
			c0.19-0.2,0.43-0.29,0.72-0.29C415.07,140.38,415.31,140.48,415.5,140.68z"/>
		<path class="st0" d="M439.31,141.18v3.59h-1.27v-2.41h-8.95v2.41h-1.27v-3.59h0.57c0.67-0.04,1.13-0.53,1.37-1.48
			c0.24-0.95,0.41-2.28,0.49-3.99l0.13-3.34h7.37v8.82H439.31z M431.12,139.29c-0.18,0.92-0.49,1.55-0.95,1.89h6.23v-7.62h-4.81
			l-0.11,2.22C431.41,137.2,431.29,138.37,431.12,139.29z"/>
		<path class="st0" d="M451.31,133.27c0.7,0.65,1.04,1.62,1.04,2.9v6.19h-1.29v-1.56c-0.3,0.52-0.75,0.92-1.34,1.22
			c-0.59,0.29-1.29,0.44-2.1,0.44c-1.11,0-2-0.27-2.66-0.8c-0.66-0.53-0.99-1.24-0.99-2.11c0-0.85,0.31-1.53,0.92-2.05
			s1.59-0.78,2.94-0.78h3.17v-0.61c0-0.86-0.24-1.52-0.72-1.97c-0.48-0.45-1.18-0.67-2.11-0.67c-0.63,0-1.24,0.1-1.82,0.31
			c-0.58,0.21-1.08,0.5-1.5,0.87l-0.61-1.01c0.51-0.43,1.11-0.76,1.82-1c0.71-0.23,1.46-0.35,2.24-0.35
			C449.61,132.29,450.62,132.61,451.31,133.27z M449.79,140.87c0.54-0.35,0.95-0.85,1.22-1.51v-1.63h-3.13
			c-1.71,0-2.56,0.6-2.56,1.79c0,0.58,0.22,1.04,0.67,1.38c0.44,0.34,1.06,0.5,1.86,0.5C448.6,141.39,449.25,141.22,449.79,140.87z"
			/>
		<path class="st0" d="M466.59,132.93c0.76,0.42,1.35,1.02,1.79,1.79c0.43,0.77,0.65,1.65,0.65,2.64c0,1-0.22,1.89-0.65,2.66
			c-0.43,0.77-1.02,1.37-1.78,1.79c-0.75,0.42-1.61,0.64-2.55,0.64c-0.81,0-1.54-0.17-2.2-0.5c-0.65-0.33-1.19-0.83-1.61-1.47v5.57
			h-1.35v-13.68h1.29v1.98c0.41-0.66,0.94-1.17,1.61-1.52s1.42-0.53,2.25-0.53C464.98,132.29,465.83,132.5,466.59,132.93z
			 M465.85,140.77c0.57-0.32,1.02-0.78,1.34-1.38c0.32-0.6,0.48-1.27,0.48-2.03s-0.16-1.43-0.48-2.02
			c-0.32-0.59-0.77-1.05-1.34-1.38c-0.57-0.33-1.2-0.49-1.9-0.49c-0.71,0-1.35,0.17-1.91,0.49c-0.56,0.33-1.01,0.79-1.33,1.38
			s-0.48,1.26-0.48,2.02s0.16,1.44,0.48,2.03c0.32,0.59,0.77,1.05,1.33,1.38s1.2,0.48,1.91,0.48
			C464.65,141.26,465.28,141.1,465.85,140.77z"/>
		<path class="st0" d="M483.08,132.36l-5,11.19c-0.41,0.94-0.87,1.6-1.41,2s-1.17,0.59-1.92,0.59c-0.48,0-0.93-0.08-1.35-0.23
			s-0.78-0.38-1.08-0.68l0.63-1.01c0.51,0.51,1.11,0.76,1.82,0.76c0.46,0,0.84-0.13,1.17-0.38c0.32-0.25,0.62-0.68,0.9-1.29
			l0.44-0.97l-4.46-9.97h1.41l3.76,8.49l3.76-8.49H483.08z"/>
		<path class="st0" d="M488.13,132.36h1.35v7.94l6.67-7.94h1.2v9.99H496v-7.94l-6.65,7.94h-1.22V132.36z M490.62,130.27
			c-0.51-0.43-0.77-1.04-0.78-1.82h0.97c0.01,0.49,0.19,0.89,0.53,1.19s0.79,0.45,1.33,0.45s0.99-0.15,1.34-0.45
			c0.35-0.3,0.53-0.69,0.54-1.19h0.97c-0.01,0.79-0.28,1.39-0.79,1.82s-1.2,0.65-2.06,0.65S491.13,130.71,490.62,130.27z"/>
		<path class="st0" d="M521.82,141.18v3.59h-1.27v-2.41h-8.95v2.41h-1.27v-3.59h0.57c0.67-0.04,1.13-0.53,1.37-1.48
			c0.24-0.95,0.41-2.28,0.49-3.99l0.13-3.34h7.37v8.82H521.82z M513.63,139.29c-0.18,0.92-0.49,1.55-0.95,1.89h6.23v-7.62h-4.81
			l-0.11,2.22C513.93,137.2,513.81,138.37,513.63,139.29z"/>
		<path class="st0" d="M535.88,132.36l-5,11.19c-0.41,0.94-0.87,1.6-1.41,2s-1.17,0.59-1.92,0.59c-0.48,0-0.93-0.08-1.35-0.23
			s-0.78-0.38-1.08-0.68l0.63-1.01c0.51,0.51,1.11,0.76,1.82,0.76c0.46,0,0.84-0.13,1.17-0.38c0.32-0.25,0.62-0.68,0.9-1.29
			l0.44-0.97l-4.46-9.97h1.41l3.76,8.49l3.76-8.49H535.88z"/>
		<path class="st0" d="M554.73,132.36v9.99h-13.79v-9.99h1.35v8.82h4.9v-8.82h1.35v8.82h4.85v-8.82H554.73z"/>
		<path class="st0" d="M570.27,137.78h-8.36c0.08,1.04,0.48,1.88,1.2,2.52s1.63,0.96,2.74,0.96c0.62,0,1.19-0.11,1.71-0.33
			c0.52-0.22,0.97-0.55,1.35-0.98l0.76,0.87c-0.44,0.53-1,0.94-1.66,1.22s-1.4,0.42-2.19,0.42c-1.03,0-1.94-0.22-2.73-0.66
			c-0.79-0.44-1.41-1.04-1.85-1.81s-0.67-1.65-0.67-2.62s0.21-1.85,0.64-2.62c0.42-0.77,1.01-1.37,1.75-1.8
			c0.74-0.43,1.57-0.65,2.5-0.65s1.75,0.22,2.49,0.65c0.73,0.43,1.31,1.03,1.73,1.79c0.42,0.77,0.63,1.64,0.63,2.63L570.27,137.78z
			 M563.02,134.37c-0.65,0.61-1.02,1.42-1.11,2.4H569c-0.09-0.99-0.46-1.79-1.11-2.4s-1.47-0.92-2.44-0.92
			C564.48,133.45,563.67,133.76,563.02,134.37z"/>
		<path class="st0" d="M587.34,132.93c0.75,0.43,1.35,1.03,1.78,1.8c0.43,0.77,0.65,1.65,0.65,2.62s-0.22,1.85-0.65,2.62
			c-0.43,0.77-1.02,1.38-1.78,1.81c-0.75,0.44-1.6,0.66-2.54,0.66c-0.89,0-1.69-0.19-2.41-0.58c-0.72-0.39-1.31-0.92-1.76-1.61
			c-0.45-0.68-0.71-1.47-0.79-2.36h-2.28v4.45h-1.35v-9.99h1.35v4.31h2.3c0.1-0.86,0.38-1.62,0.83-2.29
			c0.45-0.67,1.03-1.18,1.74-1.55c0.71-0.37,1.5-0.55,2.38-0.55C585.74,132.29,586.59,132.5,587.34,132.93z M586.66,140.78
			c0.55-0.33,0.98-0.79,1.3-1.39c0.32-0.6,0.47-1.27,0.47-2.03s-0.16-1.44-0.47-2.03c-0.32-0.59-0.75-1.05-1.3-1.38
			c-0.55-0.32-1.17-0.48-1.85-0.48c-0.68,0-1.3,0.16-1.85,0.48c-0.55,0.32-0.98,0.78-1.3,1.38c-0.32,0.6-0.47,1.27-0.47,2.03
			s0.16,1.44,0.47,2.03c0.32,0.59,0.75,1.06,1.3,1.39s1.17,0.49,1.85,0.49C585.49,141.28,586.11,141.11,586.66,140.78z"/>
	</g>
</g>
</svg>
