<?xml version="1.0" encoding="utf-8"?>
<!-- Generator: Adobe Illustrator 28.0.0, SVG Export Plug-In . SVG Version: 6.00 Build 0)  -->
<svg version="1.1" id="Слой_1" xmlns="http://www.w3.org/2000/svg" xmlns:xlink="http://www.w3.org/1999/xlink" x="0px" y="0px"
	 viewBox="0 0 580.4 152.1" style="enable-background:new 0 0 580.4 152.1;" xml:space="preserve">
<style type="text/css">
	.st0{fill:#020203;}
	.st1{fill:url(#SVGID_1_);}
	.st2{fill:url(#SVGID_00000096739035330085694320000011077186951862980757_);}
	.st3{fill:url(#SVGID_00000072994164164621825040000002970266536928736932_);}
	.st4{fill:url(#SVGID_00000183948124302006840370000016595609862694902433_);}
	.st5{fill:url(#SVGID_00000107585392140211326750000009551953941102523039_);}
	.st6{fill:url(#SVGID_00000152261132595956132100000015873029026525677203_);}
	.st7{fill:url(#SVGID_00000095307063121086887340000016864358282382766011_);}
	.st8{fill:url(#SVGID_00000013885812372516456760000005300201369663057597_);}
	.st9{fill:url(#SVGID_00000178187597821756876650000010039481145246527662_);}
	.st10{fill:url(#SVGID_00000028326092459161867060000002136364466768097695_);}
	.st11{fill:url(#SVGID_00000000922019150043782160000002838559800965574839_);}
	.st12{fill:url(#SVGID_00000065795529863440557100000009813875630466652299_);}
	.st13{fill:url(#SVGID_00000166647825646623831880000017782775613775907750_);}
	.st14{fill:url(#SVGID_00000117649906048684871050000005256865646222769812_);}
	.st15{fill:url(#SVGID_00000062884852286568348260000012325475156146508943_);}
	.st16{fill:url(#SVGID_00000046303526650174601700000009095939501954162078_);}
	.st17{fill:url(#SVGID_00000137102330201305401560000014248552496072000695_);}
	.st18{fill:url(#SVGID_00000165215309883029690720000011794148970385626519_);}
</style>
<g>
	<g>
		<path class="st0" d="M205,54.3c0-0.7-0.1-1.2-0.1-1.7s-0.3-0.8-0.6-1.1s-0.6-0.5-1.1-0.6s-1.1-0.2-1.9-0.2c-0.5,0-1.1,0-1.7,0.1
			s-1.3,0.1-2.1,0.2l-0.2-2.2c1.5-0.2,2.9-0.4,4.3-0.6s2.5-0.3,3.7-0.5s2.2-0.2,3.2-0.3s1.9-0.1,2.8-0.1c2.6,0,5,0,7.2-0.1
			s4.2-0.1,6-0.1s3.2-0.1,4.3-0.1s1.8-0.1,2.1-0.1c0.7,0,1.3,0.2,1.6,0.5s0.6,0.9,0.6,1.6c0,0.3,0,0.8-0.1,1.6s-0.1,1.8-0.2,2.8
			s-0.2,2.2-0.3,3.3s-0.2,2.3-0.4,3.3l-2.2-0.1c0-0.6,0.1-1.2,0.1-1.7s0-1,0-1.4c0-1.3-0.1-2.4-0.2-3.2s-0.4-1.5-0.9-1.9
			s-1-0.8-1.7-1s-1.6-0.3-2.7-0.3c-0.8,0-1.6,0-2.3,0s-1.4,0-2,0h-4.8c-0.3,0-0.6,0-0.9,0s-0.6,0-0.9,0s-0.7,0-1,0s-0.8,0-1.2,0
			c-0.1,2.6-0.1,5.8-0.2,9.6s-0.2,7.9-0.3,12.5c2,0.1,3.9,0.2,5.4,0.2s3.1,0.1,4.4,0.1c1.6,0,3.1-0.1,4.3-0.2s2.4-0.3,3.6-0.5
			c0.2,0.7,0.4,1.3,0.4,1.8c0,0.4-0.1,0.8-0.4,1.2s-0.7,0.6-1.2,0.8s-1.2,0.3-1.9,0.4s-1.6,0.1-2.5,0.1c-1.6,0-3.5-0.1-5.6-0.3
			s-4.3-0.4-6.6-0.7c-0.1,1.9-0.1,3.9-0.2,6s-0.1,4.2-0.2,6.3s-0.1,4.3-0.2,6.5s-0.1,4.4-0.2,6.5l-5.6,0.7l-0.4-0.1
			c0.2-4.5,0.4-8.7,0.5-12.8s0.3-7.9,0.4-11.7s0.2-7.6,0.2-11.3S205,58.2,205,54.3z"/>
		<path class="st0" d="M248.1,37.9c-0.3,2.7-0.6,5.4-0.9,8.2s-0.6,5.6-0.9,8.5s-0.5,5.7-0.8,8.6s-0.4,5.7-0.6,8.5s-0.3,5.5-0.4,8.2
			s-0.1,5.3-0.1,7.7c0,1.6,0,2.9,0.1,4s0.1,2.1,0.2,2.8s0.2,1.4,0.4,1.8s0.3,0.8,0.5,1.1s0.5,0.4,0.8,0.5s0.6,0.1,1,0.1
			c0.8,0,1.6-0.1,2.4-0.3s1.8-0.5,2.6-0.9l0.5,1.2c-0.6,0.4-1.3,0.9-2.1,1.4s-1.8,0.9-2.7,1.3s-1.9,0.7-2.8,0.9s-1.7,0.4-2.3,0.4
			c-0.8,0-1.5-0.2-2-0.6s-0.9-1.1-1.1-2.1s-0.4-2.2-0.5-3.8s-0.1-3.4-0.1-5.7c0-0.8,0-2,0.1-3.5s0.1-3.3,0.2-5.3s0.2-4.2,0.3-6.6
			s0.2-4.8,0.4-7.4s0.3-5.1,0.4-7.7s0.3-5.1,0.4-7.5s0.3-4.7,0.4-6.8s0.2-4,0.4-5.7c0-0.4,0.1-0.7,0.3-1s0.5-0.5,0.8-0.7
			s0.7-0.3,1.1-0.4s0.8-0.1,1.2-0.1C246,37.2,247,37.4,248.1,37.9z"/>
		<path class="st0" d="M255,87.4c0-1.6,0.2-3.2,0.5-4.8s0.8-3.2,1.5-4.7s1.4-2.9,2.4-4.3s2-2.5,3.3-3.5s2.6-1.8,4.1-2.4
			s3.2-0.9,5-0.9c2,0,3.8,0.4,5.3,1.3s2.8,2,3.9,3.3s1.8,3,2.4,4.7s0.8,3.6,0.8,5.4c0,1.6-0.2,3.2-0.5,4.8s-0.8,3.2-1.5,4.7
			s-1.5,2.9-2.4,4.3s-2,2.5-3.3,3.5s-2.6,1.8-4.1,2.4s-3.2,0.9-5,0.9c-2,0-3.8-0.4-5.3-1.3s-2.8-2-3.9-3.3s-1.8-3-2.4-4.7
			S255,89.2,255,87.4z M260.6,85.1c0,1.1,0.1,2.1,0.2,3.2s0.4,2.2,0.8,3.2s0.8,2,1.3,2.8s1.1,1.7,1.8,2.3s1.5,1.2,2.3,1.6
			s1.8,0.6,2.9,0.6c1.1,0,2.1-0.2,3-0.7s1.6-1.1,2.2-2s1.2-1.7,1.6-2.8s0.8-2.1,1-3.2s0.4-2.2,0.5-3.3s0.1-2.1,0.1-3
			c0-1.1-0.1-2.2-0.2-3.2s-0.4-2.1-0.8-3.1s-0.8-1.9-1.3-2.8s-1.1-1.7-1.8-2.3s-1.5-1.2-2.3-1.5s-1.8-0.6-2.9-0.6
			c-1.1,0-2.1,0.2-3,0.7s-1.6,1.1-2.2,1.9s-1.2,1.7-1.6,2.8s-0.8,2.1-1,3.2s-0.4,2.2-0.5,3.3S260.6,84.2,260.6,85.1z"/>
		<path class="st0" d="M314.5,101.6c-0.4-3-1-6-1.6-9.2s-1.3-6.4-2.1-9.6c-0.4,0.9-0.9,2-1.5,3.1s-1.1,2.2-1.8,3.3s-1.3,2.3-1.9,3.5
			s-1.3,2.3-2,3.4s-1.3,2.2-2,3.2s-1.3,1.9-1.8,2.7l-2.5-0.3c-0.2-1.5-0.4-3.1-0.7-4.7s-0.6-3.3-0.9-5s-0.6-3.3-1-5s-0.7-3.2-1-4.6
			s-0.7-2.8-1-4s-0.6-2.3-0.9-3.1c-0.3-1-0.6-1.8-0.9-2.4s-0.5-1.1-0.8-1.4s-0.6-0.6-0.9-0.7s-0.7-0.2-1.1-0.2c-0.5,0-1,0.1-1.6,0.2
			s-1.2,0.3-2,0.4l-0.4-1.7c2.1-0.8,3.9-1.3,5.4-1.7s2.6-0.6,3.3-0.6c0.4,0,0.8,0.1,1.1,0.2s0.7,0.4,1,0.7s0.6,0.8,0.9,1.4
			s0.6,1.3,0.9,2.2c0.2,0.7,0.4,1.5,0.7,2.5s0.5,2.1,0.8,3.3s0.6,2.6,0.9,4s0.6,2.9,0.9,4.4s0.6,3.1,0.9,4.7s0.5,3.2,0.7,4.7
			c0.3-0.5,0.7-1.2,1.2-2s0.9-1.6,1.4-2.5s1-1.8,1.5-2.8s1-1.9,1.4-2.8s0.8-1.8,1.1-2.5s0.5-1.4,0.7-2c0.1-0.4,0.2-0.8,0.2-1.1
			s0.1-0.7,0.1-1.1c0-0.5,0-1-0.1-1.6s-0.1-1.1-0.2-1.7s-0.2-1.1-0.3-1.7s-0.2-1.1-0.4-1.6c-0.1-0.4-0.2-0.8-0.2-1
			c0-0.5,0.2-0.9,0.5-1.2s0.9-0.4,1.6-0.4c0.5,0,1,0.1,1.5,0.2s1,0.3,1.5,0.6c0.5,1.9,1,4,1.5,6.1s1,4.3,1.5,6.5s1,4.3,1.4,6.5
			s0.9,4.2,1.2,6.2c1.1-1.7,2.2-3.5,3.2-5.3s2-3.6,2.8-5.4s1.5-3.6,2-5.4s0.8-3.5,0.8-5.2c0-0.7,0-1.4-0.1-2.1s-0.2-1.3-0.5-1.9
			s-0.5-1.2-0.9-1.7s-0.9-1.1-1.5-1.5l0.3-0.6c0.3,0,0.5-0.1,0.8-0.1s0.5,0,0.8,0c2.1,0,3.6,0.5,4.6,1.5s1.5,2.3,1.5,4.1
			c0,1.3-0.3,2.8-0.8,4.5s-1.2,3.4-2.1,5.3s-1.9,3.7-2.9,5.6s-2.2,3.8-3.4,5.6s-2.3,3.5-3.4,5.1s-2.1,3-2.9,4.2L314.5,101.6z"/>
		<path class="st0" d="M359.5,93.6c0.1,0.1,0.2,0.1,0.4,0.2s0.3,0.2,0.4,0.3s0.2,0.2,0.3,0.3s0.1,0.2,0.1,0.3c0,0.1,0,0.1-0.1,0.2
			c-0.9,1.2-1.8,2.3-2.8,3.2s-2,1.7-3.1,2.2s-2.2,1.1-3.3,1.3s-2.2,0.4-3.3,0.4c-1.9,0-3.6-0.4-5.2-1.2s-2.9-1.8-4-3.1
			s-2-2.9-2.6-4.7s-1-3.7-1-5.8c0-1.7,0.2-3.3,0.5-5s0.9-3.3,1.6-4.8s1.5-2.9,2.5-4.2s2.1-2.4,3.4-3.4s2.7-1.7,4.2-2.3
			s3.2-0.8,4.9-0.8c1.2,0,2.3,0.2,3.3,0.5s2,0.8,2.8,1.3s1.4,1.3,1.9,2.2s0.7,1.8,0.7,2.9c0,1.6-0.5,3-1.6,4.2s-2.5,2.2-4.3,3
			s-4,1.5-6.5,2s-5.1,0.9-8,1.1v0.4c0,2,0.2,3.8,0.8,5.5s1.2,3.1,2.1,4.2s1.9,2.1,3.1,2.8s2.5,1,3.9,1c1.4,0,2.9-0.3,4.3-1
			S358,95.1,359.5,93.6z M355.1,74.8c0-0.7-0.1-1.4-0.4-2s-0.6-1.2-1-1.6s-0.9-0.8-1.5-1.1s-1.2-0.4-1.9-0.4c-1,0-1.9,0.2-2.8,0.5
			s-1.6,0.8-2.2,1.5s-1.2,1.3-1.7,2.2s-0.9,1.7-1.3,2.6s-0.6,1.9-0.9,2.8s-0.4,1.9-0.5,2.8c2.2-0.2,4.2-0.4,6-0.8s3.2-0.9,4.5-1.5
			s2.1-1.3,2.8-2.2S355.1,75.8,355.1,74.8z"/>
		<path class="st0" d="M368.9,101.5l-0.4,0c0.1-1.5,0.2-3.1,0.4-4.8s0.2-3.5,0.3-5.3s0.2-3.6,0.2-5.4s0.1-3.4,0.2-5s0.1-2.9,0.1-4.1
			s0-2.2,0-2.9c0-0.6,0-1.1-0.1-1.5s-0.1-0.8-0.3-1.1s-0.4-0.5-0.7-0.6s-0.7-0.2-1.3-0.2c-0.3,0-0.5,0-0.8,0.1s-0.6,0.1-0.9,0.1
			s-0.7,0.1-1.2,0.2s-0.9,0.2-1.5,0.4l-0.4-1.7c2.6-0.9,4.7-1.6,6.3-2s2.7-0.6,3.3-0.6c1,0,1.8,0.3,2.2,0.9s0.7,1.5,0.7,2.7
			c0,0.1,0,0.4,0,1s-0.1,1.2-0.1,2.1s-0.1,1.8-0.2,3s-0.2,2.3-0.3,3.6s-0.2,2.6-0.3,4s-0.3,2.8-0.4,4.2l0.2,0
			c0.8-3.1,1.6-5.9,2.5-8.6s2-4.9,3.2-6.9s2.5-3.5,3.9-4.6s3-1.7,4.6-1.7c0.6,0,1.1,0.1,1.7,0.3s1,0.4,1.3,0.8s0.7,0.7,0.9,1.2
			s0.3,1,0.3,1.5c0,0.7-0.1,1.4-0.5,2s-0.8,1.2-1.4,1.7h-0.2c-0.7-0.6-1.3-0.9-1.9-1.2s-1.2-0.4-1.9-0.4c-0.7,0-1.4,0.1-2,0.4
			s-1.3,0.7-1.8,1.2c-0.9,0.8-1.7,1.9-2.5,3.2s-1.5,2.8-2.1,4.4s-1.2,3.3-1.7,5.1s-1,3.5-1.3,5.2s-0.7,3.3-0.9,4.8s-0.4,2.8-0.5,3.8
			L368.9,101.5z"/>
		<path class="st0" d="M405.7,53.2c0,0.7,0,1.5,0,2.5s-0.1,2.3-0.1,3.8s-0.1,3.2-0.2,5.2s-0.1,4.2-0.2,6.8c2.2-0.1,4.4-0.1,6.5-0.2
			s4.1-0.1,6.1-0.1s4-0.1,6.1-0.1s4.1,0,6.3-0.1c0-1.6,0.1-3.2,0.1-4.8s0.1-3.3,0.2-5s0.2-3.7,0.3-5.7s0.3-4.3,0.4-6.8
			c0-0.3,0.1-0.6,0.3-0.9s0.5-0.5,0.8-0.6s0.6-0.3,1-0.4s0.8-0.1,1.1-0.1c0.5,0,0.9,0.1,1.5,0.2s1,0.3,1.5,0.5
			c-0.2,2.6-0.4,5-0.6,7.4s-0.3,4.6-0.5,6.8s-0.2,4.4-0.3,6.6s-0.2,4.3-0.2,6.6s-0.1,4.4-0.1,6.8s0,4.7,0,7.2c0,1.7,0.1,3.1,0.2,4.2
			s0.4,2.1,0.7,2.9s0.8,1.3,1.4,1.6s1.3,0.5,2.2,0.5c0.6,0,1.3-0.1,2-0.2s1.5-0.3,2.5-0.7l0.7,1.9c-1.1,0.5-2.2,0.9-3.1,1.3
			s-1.9,0.7-2.7,0.9s-1.6,0.4-2.3,0.5s-1.4,0.2-2.1,0.2c-0.9,0-1.7-0.2-2.3-0.5s-1.2-0.9-1.7-1.7s-0.8-1.8-1-3s-0.3-2.8-0.3-4.6
			v-5.3c0-1.2,0-2.4,0-3.5s0-2.2,0-3.2s0-2.1,0-3.1s0-2,0.1-2.9c-2.2,0-4.2,0-6.3,0s-4,0.1-6.1,0.1s-4.1,0.1-6.2,0.2
			s-4.2,0.2-6.5,0.3l-0.8,26.2l-5.5,0.7l-0.4-0.1c0.2-4.5,0.4-8.8,0.5-12.8s0.3-8,0.4-11.8s0.2-7.6,0.2-11.3s0.1-7.5,0.1-11.3
			c0-0.7,0-1.4-0.1-1.9s-0.3-0.9-0.6-1.3s-0.7-0.6-1.2-0.7s-1.1-0.2-1.9-0.2c-1,0-2.4,0.1-4,0.3l-0.2-2c2.3-0.6,4.2-1,5.8-1.3
			s2.9-0.4,4-0.4c1,0,1.9,0.1,2.5,0.4s1,0.7,1.3,1.2c0.3,0.5,0.5,1.2,0.5,2S405.7,52.2,405.7,53.2z"/>
		<path class="st0" d="M466.4,76.7c0-1.2-0.2-2.3-0.6-3.2s-0.9-1.7-1.6-2.2s-1.4-1-2.2-1.3s-1.7-0.4-2.5-0.4c-1.1,0-2,0.1-2.8,0.3
			s-1.4,0.6-1.9,1s-0.8,0.9-1,1.4s-0.3,1.2-0.3,1.8c0,0.8,0.1,1.5,0.4,2.3s0.7,1.5,1.2,2.2l-0.1,0.3c-0.9,0.4-1.8,0.7-2.7,0.7
			c-0.5,0-1-0.1-1.5-0.2s-0.9-0.4-1.2-0.7s-0.6-0.7-0.8-1.2s-0.3-1-0.3-1.5c0-0.9,0.2-1.8,0.7-2.6s1-1.6,1.8-2.2s1.6-1.3,2.5-1.8
			s2-1,3-1.3s2.1-0.7,3.1-0.8s2-0.3,2.9-0.3c1.6,0,3,0.2,4.2,0.7s2.1,1.1,2.8,1.9s1.3,1.8,1.6,3s0.5,2.5,0.5,4c0,1,0,2.2-0.1,3.4
			s-0.2,2.5-0.3,3.9s-0.2,2.8-0.3,4.2s-0.1,2.9-0.1,4.3c0,2.2,0.4,3.9,1.2,5.1s1.9,1.7,3.3,1.7c1.2,0,2.5-0.4,4-1.3l0.7,1
			c-1,1.1-2.2,1.8-3.4,2.4s-2.5,0.8-3.9,0.8c-1,0-2-0.2-2.8-0.5s-1.6-0.9-2.2-1.5s-1.1-1.5-1.5-2.6s-0.5-2.2-0.5-3.6
			c0-0.4,0-0.8,0-1.2s0.1-0.8,0.1-1.3h-0.1c-0.7,1.3-1.5,2.7-2.3,4s-1.9,2.5-2.9,3.5s-2.2,1.8-3.4,2.5s-2.5,0.9-3.8,0.9
			c-1.1,0-2.1-0.2-3-0.6s-1.6-0.9-2.3-1.6s-1.1-1.4-1.5-2.3s-0.5-1.9-0.5-2.9c0-1.4,0.2-2.6,0.8-3.8s1.2-2.1,2.1-3s2-1.7,3.2-2.3
			s2.6-1.2,4.1-1.6s3-0.8,4.7-1s3.3-0.3,5-0.3c0.1-1,0.2-1.9,0.3-2.9S466.4,77.9,466.4,76.7z M452,92.8c0,0.6,0.1,1.2,0.2,1.8
			s0.3,1,0.6,1.5s0.7,0.8,1.1,1s1,0.4,1.6,0.4c0.7,0,1.4-0.2,2.2-0.5s1.5-0.8,2.2-1.4s1.4-1.3,2.1-2.1s1.3-1.7,1.8-2.6s1-2,1.3-3
			s0.6-2.1,0.7-3.2c-1.2,0-2.3,0.1-3.5,0.2s-2.2,0.3-3.2,0.6s-2,0.6-2.9,1s-1.6,0.9-2.3,1.5s-1.1,1.3-1.5,2.1S452,91.8,452,92.8z"/>
		<path class="st0" d="M488.2,101.7c-0.2-1.5-0.5-3.1-0.7-4.7s-0.6-3.3-0.9-5s-0.7-3.3-1-5s-0.7-3.2-1-4.7s-0.7-2.8-1-4.1
			s-0.6-2.3-0.9-3.2c-0.3-0.9-0.6-1.7-0.8-2.3s-0.5-1.1-0.8-1.4s-0.6-0.6-1-0.7s-0.7-0.2-1.2-0.2c-0.5,0-1,0.1-1.6,0.2
			s-1.2,0.3-2,0.4l-0.4-1.7c0.9-0.3,1.9-0.7,2.8-0.9s1.7-0.5,2.5-0.7s1.5-0.4,2-0.5s1.1-0.2,1.4-0.2c0.4,0,0.8,0.1,1.2,0.2
			s0.7,0.4,1,0.8s0.6,0.8,0.9,1.5s0.6,1.4,0.9,2.3c0.2,0.6,0.4,1.4,0.7,2.4s0.6,2.1,0.9,3.4s0.6,2.6,0.9,4.1s0.6,3,0.9,4.6
			s0.6,3.2,0.8,4.8s0.5,3.2,0.7,4.8c0.8-1.1,1.6-2.3,2.4-3.5c0.8-1.2,1.6-2.4,2.3-3.7s1.4-2.5,2-3.8s1.2-2.5,1.6-3.8
			s0.8-2.5,1.1-3.7s0.4-2.4,0.4-3.5c0-1.4-0.2-2.7-0.7-4s-1.3-2.3-2.5-3.3l0.3-0.6c0.3,0,0.5-0.1,0.8-0.1s0.5,0,0.8,0
			c2.1,0,3.7,0.5,4.7,1.5s1.6,2.3,1.6,4.1c0,1.3-0.3,2.8-0.8,4.5s-1.3,3.5-2.2,5.3s-2,3.8-3.1,5.7s-2.4,3.8-3.6,5.6
			s-2.4,3.5-3.6,5.1s-2.2,2.9-3.1,4.1L488.2,101.7z"/>
		<path class="st0" d="M534.2,93.6c0.1,0.1,0.2,0.1,0.4,0.2s0.3,0.2,0.4,0.3s0.2,0.2,0.3,0.3s0.1,0.2,0.1,0.3c0,0.1,0,0.1-0.1,0.2
			c-0.9,1.2-1.8,2.3-2.8,3.2s-2,1.7-3.1,2.2s-2.2,1.1-3.3,1.3s-2.2,0.4-3.3,0.4c-1.9,0-3.6-0.4-5.2-1.2s-2.9-1.8-4-3.1
			s-2-2.9-2.6-4.7s-1-3.7-1-5.8c0-1.7,0.2-3.3,0.5-5s0.9-3.3,1.6-4.8s1.5-2.9,2.5-4.2s2.1-2.4,3.4-3.4s2.7-1.7,4.2-2.3
			s3.2-0.8,4.9-0.8c1.2,0,2.3,0.2,3.3,0.5s2,0.8,2.8,1.3s1.4,1.3,1.9,2.2s0.7,1.8,0.7,2.9c0,1.6-0.5,3-1.6,4.2s-2.5,2.2-4.3,3
			s-4,1.5-6.5,2s-5.2,0.9-8,1.1v0.4c0,2,0.2,3.8,0.8,5.5s1.2,3.1,2.1,4.2s1.9,2.1,3.1,2.8s2.5,1,3.9,1c1.4,0,2.8-0.3,4.3-1
			S532.6,95.1,534.2,93.6z M529.7,74.8c0-0.7-0.1-1.4-0.4-2s-0.6-1.2-1-1.6s-0.9-0.8-1.5-1.1s-1.2-0.4-1.9-0.4c-1,0-1.9,0.2-2.8,0.5
			s-1.6,0.8-2.2,1.5s-1.2,1.3-1.7,2.2s-0.9,1.7-1.3,2.6s-0.6,1.9-0.9,2.8s-0.4,1.9-0.5,2.8c2.2-0.2,4.2-0.4,6-0.8s3.2-0.9,4.5-1.5
			s2.1-1.3,2.8-2.2S529.7,75.8,529.7,74.8z"/>
		<path class="st0" d="M544.4,73.9c0-0.6,0-1.2-0.1-1.6s-0.2-0.8-0.4-1s-0.4-0.4-0.7-0.6s-0.7-0.2-1-0.2c-0.6,0-1.2,0.1-2,0.2
			s-1.7,0.4-2.7,0.6l-0.3-1.7c1.1-0.4,2.2-0.8,3.2-1.1s2-0.6,2.8-0.8s1.6-0.4,2.3-0.5s1.2-0.2,1.5-0.2c0.9,0,1.6,0.3,2.1,0.8
			s0.8,1.5,0.8,2.8c0,0.2,0,0.5,0,1.1s-0.1,1.3-0.1,2.2s-0.1,1.9-0.2,3s-0.2,2.3-0.3,3.6s-0.2,2.6-0.3,4s-0.3,2.7-0.4,4.1l0.1,0
			c1.2-4,2.5-7.4,3.8-10.2s2.7-5,4.2-6.8s2.8-3,4.2-3.7s2.7-1.2,4-1.2c0.9,0,1.7,0.2,2.5,0.5s1.5,0.8,2.2,1.6s1.1,1.6,1.5,2.8
			s0.6,2.5,0.6,4.1c0,0.5,0,1.1-0.1,1.9s-0.1,1.7-0.2,2.6s-0.2,2-0.3,3.1s-0.2,2.2-0.3,3.2s-0.1,2-0.2,3s-0.1,1.8-0.1,2.5
			c0,1.2,0,2.2,0.2,3s0.3,1.4,0.5,1.8s0.5,0.8,0.9,0.9s0.9,0.2,1.4,0.2c0.8,0,1.7-0.1,2.5-0.3s1.8-0.5,2.7-0.9l0.5,1.2
			c-0.6,0.4-1.3,0.9-2.1,1.4s-1.8,0.9-2.7,1.3s-1.9,0.7-2.8,0.9s-1.8,0.4-2.5,0.4c-0.8,0-1.5-0.2-2-0.7s-0.8-1.1-1.1-1.8
			s-0.4-1.7-0.5-2.7s-0.1-2.2-0.1-3.4c0-1.5,0-3,0.2-4.5s0.2-3,0.3-4.4s0.2-2.7,0.3-3.8s0.2-2.1,0.2-2.8c0-1.8-0.3-3.2-1-4
			s-1.6-1.3-2.7-1.3c-0.9,0-1.9,0.4-2.9,1.2s-2,1.8-3,3.2s-2,2.9-2.9,4.7s-1.7,3.8-2.5,5.9s-1.3,4.3-1.8,6.6s-0.8,4.6-0.9,6.9
			l-4.9,0.6l-0.4,0c0.1-1.5,0.2-3.1,0.3-4.8s0.2-3.5,0.3-5.3s0.2-3.6,0.2-5.4s0.1-3.4,0.2-5s0.1-2.9,0.1-4.1S544.4,74.6,544.4,73.9z
			"/>
	</g>
	<g>
		<g>
			<g>
				<g>
					
						<linearGradient id="SVGID_1_" gradientUnits="userSpaceOnUse" x1="110.8329" y1="88.8564" x2="183.3877" y2="88.8564" gradientTransform="matrix(1 0 0 -1 0 150.7559)">
						<stop  offset="0" style="stop-color:#EF81B2"/>
						<stop  offset="1" style="stop-color:#D41216"/>
					</linearGradient>
					<path class="st1" d="M136.1,26.8c1.6,2.3,2.9,4.9,3.9,7.5c1,2.6,1.8,5.4,2.2,8.2c0.4,2.8,0.7,5.7,0.5,8.5
						c-0.1,2.9-0.6,5.7-1.3,8.4l-0.8-0.6c3.1-1.8,6.3-3.2,9.6-4.5c3.3-1.3,6.7-2.3,10.1-3.1c3.4-0.8,7-1.3,10.5-1.6l2.7-0.1
						c0.9,0,1.8,0.1,2.7,0.1l1.3,0.1l1.3,0.2l2.6,0.3l1.6,0.2l-1.2,1.3c-4.4,4.8-7.7,10.8-9.5,17.1c-0.2,0.8-0.4,1.6-0.6,2.4
						l-0.3,1.3l-0.4,1.3c-0.6,1.7-1.3,3.2-2.2,4.7c-1.7,3-3.9,5.7-6.3,8.2c-4.9,4.8-11.2,8.3-18,9.7c-6.8,1.4-13.9,0.7-20.4-1.6
						l-0.1,0l0,0c-3.1-1.7-5.6-4.1-7.7-6.8c-2.1-2.7-3.6-5.8-4.4-9.1c-0.9-3.3-1-6.7-0.7-10.1c0.3-3.3,1.2-6.6,2.3-9.8l0.9-2.3
						l1-2.3c0.7-1.5,1.6-3,2.5-4.4c1-1.4,2.1-2.7,3.3-3.8c1.2-1.2,2.5-2.2,3.7-3.3c2.4-2.2,4.7-4.6,6.7-7.2
						C133.7,33,135.5,30.1,136.1,26.8z M136.1,26.8c-0.5,3.3-2.1,6.3-4,9c-1.9,2.7-4.2,5.2-6.6,7.5c-1.2,1.2-2.5,2.2-3.6,3.4
						c-1.1,1.2-2.1,2.4-3,3.8c-0.9,1.3-1.7,2.8-2.3,4.2l-0.9,2.3l-0.9,2.3c-1.1,3.1-1.8,6.3-2.1,9.5c-0.2,3.2-0.1,6.5,0.8,9.6
						c0.8,3.1,2.3,6,4.3,8.5c1.9,2.5,4.4,4.7,7.1,6.2l-0.1-0.1c6.2,2.1,13,2.8,19.4,1.4c6.4-1.4,12.3-4.7,17-9.2
						c2.3-2.3,4.4-4.9,6-7.7c0.8-1.4,1.5-2.9,2.1-4.4l0.4-1.2l0.3-1.2c0.2-0.8,0.4-1.7,0.6-2.5c2-6.6,5.4-12.7,10.1-17.8l0.5,1.5
						c-3.4-0.5-6.8-0.8-10.3-0.6c-3.4,0.2-6.9,0.6-10.3,1.3c-3.4,0.7-6.7,1.7-10,2.9c-3.2,1.2-6.5,2.6-9.5,4.2l-1.1,0.6l0.3-1.2
						c0.7-2.7,1.3-5.4,1.5-8.2c0.3-2.8,0.1-5.6-0.2-8.4c-0.4-2.8-1-5.5-1.9-8.2C138.8,31.8,137.6,29.2,136.1,26.8z"/>
				</g>
				<g>
					
						<linearGradient id="SVGID_00000124128598479143892770000004211258129481245328_" gradientUnits="userSpaceOnUse" x1="141.4609" y1="106.2809" x2="158.5466" y2="106.2809" gradientTransform="matrix(1 0 0 -1 0 150.7559)">
						<stop  offset="0" style="stop-color:#EF81B2"/>
						<stop  offset="1" style="stop-color:#D41216"/>
					</linearGradient>
					<path style="fill:url(#SVGID_00000124128598479143892770000004211258129481245328_);" d="M155.1,53.4c0.5-2.8,0.9-5.6,1.2-8.4
						c0.1-1.4,0.2-2.8,0.3-4.1c0-1.4,0-2.7-0.2-4l1.2,0.8c-1.3,0.3-2.7,0.7-4.1,1.2c-1.4,0.4-2.7,1-4,1.6c-1.3,0.6-2.6,1.2-3.8,2
						c-1.2,0.7-2.4,1.6-3.5,2.5c0.8-1.2,1.8-2.3,2.9-3.3c1.1-1,2.4-1.8,3.6-2.6c1.3-0.8,2.6-1.4,4-2c1.4-0.5,2.8-1,4.3-1.4l1.1-0.2
						l0.1,1.1c0.4,3,0.1,5.9-0.5,8.7c-0.3,1.4-0.7,2.8-1.1,4.2C156.3,50.8,155.8,52.1,155.1,53.4z"/>
				</g>
				<g>
					
						<linearGradient id="SVGID_00000025433619522698782840000012496389959998407855_" gradientUnits="userSpaceOnUse" x1="113.6022" y1="38.9559" x2="125.4358" y2="38.9559" gradientTransform="matrix(1 0 0 -1 0 150.7559)">
						<stop  offset="0" style="stop-color:#EF81B2"/>
						<stop  offset="1" style="stop-color:#D41216"/>
					</linearGradient>
					<path style="fill:url(#SVGID_00000025433619522698782840000012496389959998407855_);" d="M115.7,129.7
						c-0.4-1.6-0.8-3.2-1.1-4.8c-0.3-1.6-0.5-3.2-0.6-4.9c-0.1-1.6-0.1-3.3-0.1-4.9l0.2-2.5c0-0.8,0.2-1.7,0.3-2.5
						c0.2-0.8,0.2-1.7,0.5-2.4l0.7-2.4c0.3-0.8,0.6-1.6,0.9-2.3c0.3-0.8,0.7-1.5,1.1-2.2c0.4-0.7,0.9-1.4,1.4-2.1
						c0.6-0.6,1-1.3,1.6-1.9c1.2-1.2,2.5-2.2,4.1-2.8c-1.3,1-2.4,2.2-3.3,3.5c-0.5,0.6-0.9,1.3-1.3,2c-0.3,0.7-0.8,1.4-1.1,2.1
						c-1.3,2.9-2.1,5.9-2.6,9.1c-0.3,1.6-0.4,3.1-0.6,4.7c-0.1,1.6-0.1,3.2-0.2,4.8c0.1,1.6,0,3.2,0.1,4.8
						C115.6,126.5,115.7,128.1,115.7,129.7z"/>
				</g>
				<g>
					
						<linearGradient id="SVGID_00000114039176031253365000000015783856489009973935_" gradientUnits="userSpaceOnUse" x1="117.3415" y1="37.1609" x2="129.1747" y2="37.1609" gradientTransform="matrix(1 0 0 -1 0 150.7559)">
						<stop  offset="0" style="stop-color:#EF81B2"/>
						<stop  offset="1" style="stop-color:#D41216"/>
					</linearGradient>
					<path style="fill:url(#SVGID_00000114039176031253365000000015783856489009973935_);" d="M128.2,95.2c-1.3,1-2.4,2.2-3.4,3.6
						c-0.5,0.6-0.9,1.4-1.3,2c-0.3,0.7-0.8,1.4-1.1,2.2c-1.3,2.9-2.1,6.1-2.6,9.3c-0.3,1.6-0.3,3.2-0.5,4.9
						c-0.1,1.6-0.1,3.3-0.1,4.9c0.1,1.6,0.1,3.3,0.1,4.9c0.1,1.6,0.2,3.3,0.2,5c-0.5-1.6-0.8-3.2-1.2-4.9c-0.3-1.6-0.5-3.3-0.7-5
						c-0.1-0.8-0.1-1.7-0.1-2.5c0-0.8-0.1-1.7-0.1-2.5l0.1-2.5c0-0.4,0-0.9,0.1-1.3l0.2-1.3c0.2-0.8,0.2-1.7,0.5-2.5l0.6-2.5
						c0.3-0.8,0.6-1.6,0.9-2.4c0.3-0.8,0.8-1.6,1.1-2.3c0.4-0.8,0.9-1.5,1.4-2.2c0.6-0.7,1-1.4,1.7-2
						C125.2,96.9,126.6,95.8,128.2,95.2z"/>
				</g>
			</g>
			<g>
				
					<linearGradient id="SVGID_00000103249136113268291390000011992957155585452416_" gradientUnits="userSpaceOnUse" x1="118.6819" y1="35.2724" x2="139.4396" y2="35.2724" gradientTransform="matrix(1 0 0 -1 0 150.7559)">
					<stop  offset="0" style="stop-color:#EF81B2"/>
					<stop  offset="1" style="stop-color:#D41216"/>
				</linearGradient>
				<path style="fill:url(#SVGID_00000103249136113268291390000011992957155585452416_);" d="M119.7,118.1c0-2.1,0.4-4.2,1.2-6.1
					c0.5-0.9,1.1-1.8,1.9-2.5c0.4-0.3,0.8-0.7,1.4-0.9c0.2-0.1,0.5-0.2,0.7-0.3l0.8-0.2c0.5-0.2,1.1-0.2,1.6-0.2
					c0.6-0.1,1-0.1,1.6-0.1c1-0.1,2-0.1,3.1-0.3c1-0.1,2-0.3,2.9-0.6c0.5-0.1,0.9-0.3,1.4-0.4c0.2-0.1,0.4-0.2,0.6-0.3
					c0.1-0.1,0.2-0.1,0.3-0.2c0.1,0,0.2-0.1,0.1-0.1l1.6,0.8c-0.3,1.4-0.6,2.8-1,4.2c-0.4,1.4-0.9,2.7-1.5,4
					c-1.2,2.6-2.7,5.1-4.9,7.1c-1.1,1-2.3,1.8-3.6,2.4c-0.7,0.3-1.4,0.5-2.1,0.6c-0.4,0.1-0.7,0.1-1.1,0.1c-0.4,0-0.7-0.1-1.1-0.2
					c-1.4-0.4-2.6-1.4-3.1-2.7C119.8,120.9,119.7,119.5,119.7,118.1z M119.7,118.1c0,1.4,0.1,2.8,0.8,4.1c0.6,1.2,1.8,2.1,3.2,2.4
					c0.3,0.1,0.7,0.1,1,0.1c0.3-0.1,0.7-0.1,1-0.2c0.6-0.2,1.3-0.4,1.9-0.7c1.2-0.6,2.2-1.5,3.1-2.5c0.9-1,1.6-2.1,2.2-3.3
					c0.6-1.2,1.2-2.4,1.7-3.7c0.5-1.2,1-2.5,1.4-3.8c0.4-1.3,0.8-2.6,1.1-3.9l1.6,0.8c-0.1,0.1-0.2,0.2-0.3,0.2
					c-0.1,0.1-0.1,0.1-0.2,0.1c-0.1,0.1-0.3,0.2-0.4,0.2c-0.3,0.1-0.6,0.2-0.8,0.3c-0.5,0.2-1.1,0.3-1.6,0.4
					c-1.1,0.2-2.1,0.3-3.2,0.3c-1.1,0-2.1,0-3.2,0c-1.1-0.1-2-0.1-3,0l-0.7,0.1c-0.2,0.1-0.5,0.2-0.7,0.2c-0.5,0.1-0.9,0.4-1.3,0.7
					c-0.8,0.6-1.5,1.4-2,2.3C120.1,113.9,119.7,116,119.7,118.1z"/>
			</g>
			<g>
				
					<linearGradient id="SVGID_00000098219318683668017320000007320225365249001875_" gradientUnits="userSpaceOnUse" x1="98.785" y1="50.4196" x2="116.2121" y2="50.4196" gradientTransform="matrix(1 0 0 -1 0 150.7559)">
					<stop  offset="0" style="stop-color:#EF81B2"/>
					<stop  offset="1" style="stop-color:#D41216"/>
				</linearGradient>
				<path style="fill:url(#SVGID_00000098219318683668017320000007320225365249001875_);" d="M114.8,105.5c0.5-2,0.6-4.2,0.1-6.1
					c-0.3-1-0.8-1.9-1.4-2.7c-0.4-0.3-0.7-0.7-1.1-1c-0.2-0.1-0.4-0.3-0.6-0.4L111,95c-0.9-0.4-1.9-0.5-2.9-0.7
					c-1-0.2-2.1-0.4-3.1-0.7c-1-0.3-2-0.6-3-1.1c-0.5-0.2-1-0.5-1.5-0.8c-0.2-0.2-0.5-0.3-0.7-0.5c-0.1-0.1-0.2-0.2-0.4-0.3
					c-0.1-0.1-0.1-0.1-0.2-0.2c-0.1-0.1-0.1-0.1-0.2-0.3l1.8-0.4c0,1.3,0,2.7,0.1,4.1c0.1,1.4,0.2,2.7,0.4,4.1
					c0.2,1.3,0.4,2.7,0.8,4c0.3,1.3,0.8,2.6,1.4,3.8c0.6,1.2,1.4,2.3,2.4,3.2c0.5,0.5,1.1,0.8,1.7,1.2c0.3,0.2,0.6,0.3,0.9,0.4
					c0.3,0.1,0.6,0.2,1,0.2c1.3,0.1,2.7-0.5,3.6-1.6C113.9,108.2,114.4,106.8,114.8,105.5z M114.8,105.5c-0.3,1.3-0.8,2.7-1.7,3.8
					c-0.9,1.1-2.2,1.8-3.7,1.9c-0.4,0-0.7,0-1.1-0.1c-0.3-0.1-0.7-0.2-1-0.3c-0.7-0.3-1.3-0.6-1.9-1.1c-1.2-0.8-2.2-1.9-3-3.2
					c-1.6-2.4-2.5-5.2-3-8.1c-0.2-1.4-0.4-2.8-0.5-4.2c-0.1-1.4-0.1-2.8,0-4.3l1.8-0.4c0-0.1,0.1,0.1,0.1,0.1
					c0.1,0.1,0.1,0.1,0.2,0.2c0.2,0.1,0.3,0.3,0.5,0.4c0.4,0.3,0.8,0.5,1.2,0.7c0.9,0.5,1.8,0.9,2.7,1.2c0.9,0.4,1.9,0.7,2.9,1
					c0.5,0.2,1,0.3,1.5,0.5c0.5,0.2,1,0.3,1.5,0.6l0.7,0.4c0.2,0.2,0.4,0.3,0.6,0.5c0.4,0.3,0.8,0.8,1.1,1.2c0.6,0.9,1,1.9,1.2,2.9
					C115.4,101.4,115.3,103.5,114.8,105.5z"/>
			</g>
		</g>
		<g>
			<g>
				<g>
					
						<linearGradient id="SVGID_00000145042153332547031480000001874070063569849531_" gradientUnits="userSpaceOnUse" x1="1.3896" y1="44.2707" x2="77.7631" y2="44.2707" gradientTransform="matrix(1 0 0 -1 0 150.7559)">
						<stop  offset="0" style="stop-color:#EF81B2"/>
						<stop  offset="1" style="stop-color:#D41216"/>
					</linearGradient>
					<path style="fill:url(#SVGID_00000145042153332547031480000001874070063569849531_);" d="M25.8,74.3c0.2,2.8,0.8,5.6,1.6,8.3
						c0.8,2.7,1.9,5.3,3.2,7.8c1.3,2.5,2.9,4.8,4.7,6.9c1.8,2.2,3.9,4,6,5.8l1,0.8l-1.2,0.2c-3.4,0.4-6.8,1.2-10.2,2.2
						c-3.3,1-6.6,2.1-9.8,3.5c-3.2,1.4-6.2,3.1-9.1,4.9c-2.9,1.9-5.5,4.1-8,6.5l-0.5-1.5c6.8,1.3,13.1,4.3,18.6,8.4
						c0.7,0.5,1.3,1.1,2,1.6l0.9,0.8l1,0.7c1.3,0.9,2.8,1.7,4.2,2.4c3,1.3,6.2,2.2,9.4,2.7c6.5,0.9,13.2,0.1,19.2-2.5
						c6-2.7,11.1-7.1,14.9-12.5l-0.1,0.1c1.3-2.8,2-6.1,2.1-9.2c0.1-3.2-0.4-6.4-1.5-9.4c-1.1-3-2.9-5.8-5-8.2
						c-2.1-2.4-4.6-4.6-7.3-6.5l-2-1.4L58,85.4c-1.4-0.8-2.9-1.5-4.4-2.1c-1.5-0.6-3.1-1-4.7-1.3c-1.6-0.3-3.2-0.4-4.9-0.6
						c-3.3-0.4-6.5-1.1-9.7-2.2C31.2,78.2,28.1,76.7,25.8,74.3z M25.8,74.3c2.4,2.3,5.5,3.6,8.7,4.5c3.2,0.9,6.4,1.5,9.7,1.8
						c1.6,0.2,3.3,0.2,4.9,0.5c1.7,0.3,3.3,0.6,4.9,1.2s3.1,1.2,4.6,2.1l2.2,1.2l2.1,1.3c2.8,1.9,5.4,4,7.6,6.5
						c2.2,2.5,4.2,5.4,5.4,8.6c1.3,3.2,1.9,6.6,1.8,10c-0.1,3.4-0.8,6.8-2.2,10l0,0l-0.1,0.1c-3.9,5.6-9.2,10.4-15.5,13.2
						c-6.3,2.9-13.4,3.8-20.3,2.8c-3.4-0.5-6.8-1.4-9.9-2.9c-1.6-0.7-3.1-1.6-4.5-2.6L24,132l-1-0.9c-0.6-0.5-1.2-1.1-1.9-1.6
						c-5.2-4-11.4-6.9-17.7-8.2L1.6,121l1.2-1.1l2-1.8l1-0.9l1-0.8c0.7-0.5,1.4-1.1,2.1-1.6l2.2-1.5c3-1.9,6.1-3.6,9.4-4.9
						c3.3-1.4,6.6-2.5,10-3.4c3.4-0.9,6.8-1.6,10.4-2l-0.3,0.9c-2.2-1.8-4.3-3.8-6-6.1c-1.8-2.2-3.3-4.6-4.6-7.2
						c-1.3-2.5-2.3-5.2-3-7.9C26.3,80,25.8,77.2,25.8,74.3z"/>
				</g>
				<g>
					
						<linearGradient id="SVGID_00000071540632008138789010000014715169252913271990_" gradientUnits="userSpaceOnUse" x1="13.0627" y1="51.4562" x2="31.7468" y2="51.4562" gradientTransform="matrix(1 0 0 -1 0 150.7559)">
						<stop  offset="0" style="stop-color:#EF81B2"/>
						<stop  offset="1" style="stop-color:#D41216"/>
					</linearGradient>
					<path style="fill:url(#SVGID_00000071540632008138789010000014715169252913271990_);" d="M26,107c-1.3-0.7-2.5-1.4-3.6-2.3
						c-1.2-0.8-2.3-1.7-3.3-2.7c-2.1-1.9-4.1-4.1-5.5-6.8L13,94.3l1-0.4c1.4-0.6,2.8-1,4.3-1.4c1.5-0.3,2.9-0.7,4.4-0.8
						c1.5-0.2,3-0.2,4.5-0.1c1.5,0.2,3,0.5,4.3,1c-1.5-0.1-2.9-0.1-4.3,0c-1.4,0.1-2.8,0.3-4.2,0.6c-1.4,0.3-2.8,0.6-4.1,1.1
						c-1.3,0.4-2.7,0.9-4,1.4l0.5-1.4c0.6,1.2,1.4,2.3,2.2,3.4s1.7,2.1,2.6,3.2C22,103,24,105,26,107z"/>
				</g>
				<g>
					
						<linearGradient id="SVGID_00000074436521558792469180000009238115440255888317_" gradientUnits="userSpaceOnUse" x1="73.6195" y1="17.2478" x2="103.7959" y2="17.2478" gradientTransform="matrix(1 0 0 -1 0 150.7559)">
						<stop  offset="0" style="stop-color:#EF81B2"/>
						<stop  offset="1" style="stop-color:#D41216"/>
					</linearGradient>
					<path style="fill:url(#SVGID_00000074436521558792469180000009238115440255888317_);" d="M102.8,145.6c-1-1.3-1.8-2.7-2.7-4.1
						c-0.9-1.3-1.9-2.6-2.8-3.9c-1-1.3-2-2.5-3-3.8c-1.1-1.2-2.1-2.4-3.2-3.5c-2.2-2.3-4.7-4.2-7.4-5.8c-0.7-0.4-1.4-0.7-2.1-1.1
						c-0.7-0.3-1.4-0.6-2.2-0.8c-1.5-0.5-3.1-0.8-4.7-0.9c1.6-0.4,3.3-0.4,4.9-0.1c0.8,0.1,1.6,0.4,2.4,0.6c0.8,0.3,1.6,0.6,2.3,0.9
						c0.7,0.4,1.5,0.7,2.2,1.2c0.7,0.4,1.4,0.9,2.1,1.4l1.9,1.6c0.7,0.5,1.2,1.1,1.8,1.7c0.6,0.6,1.2,1.2,1.7,1.8l1.6,1.9
						c1,1.3,1.9,2.7,2.8,4.1c0.8,1.4,1.6,2.9,2.3,4.3C101.6,142.6,102.2,144.1,102.8,145.6z"/>
				</g>
				<g>
					
						<linearGradient id="SVGID_00000143584541156671350940000004054370984825087112_" gradientUnits="userSpaceOnUse" x1="71.3856" y1="13.554" x2="101.9575" y2="13.554" gradientTransform="matrix(1 0 0 -1 0 150.7559)">
						<stop  offset="0" style="stop-color:#EF81B2"/>
						<stop  offset="1" style="stop-color:#D41216"/>
					</linearGradient>
					<path style="fill:url(#SVGID_00000143584541156671350940000004054370984825087112_);" d="M72.4,125c1.6-0.4,3.4-0.4,5.1-0.1
						c0.8,0.1,1.7,0.4,2.5,0.6c0.8,0.3,1.6,0.6,2.4,1c0.8,0.4,1.6,0.7,2.3,1.2s1.4,0.9,2.1,1.4l2,1.6c0.7,0.5,1.2,1.2,1.8,1.8
						l0.9,0.9c0.3,0.3,0.6,0.6,0.8,1l1.6,2c0.5,0.7,1,1.4,1.4,2.1c0.5,0.7,1,1.4,1.4,2.1c0.8,1.5,1.6,2.9,2.4,4.4
						c0.7,1.6,1.3,3.1,1.9,4.6c-1-1.4-1.9-2.8-2.8-4.2c-0.9-1.4-1.9-2.7-2.8-4.1c-1-1.3-2-2.6-3-3.9c-1.1-1.2-2.1-2.5-3.3-3.6
						c-2.2-2.4-4.8-4.4-7.5-6c-0.7-0.4-1.4-0.7-2.1-1.1c-0.8-0.3-1.5-0.7-2.3-0.9C75.7,125.4,74.1,125,72.4,125z"/>
				</g>
			</g>
			<g>
				
					<linearGradient id="SVGID_00000056387822621599538170000004675738963467161269_" gradientUnits="userSpaceOnUse" x1="68.1929" y1="9.6937" x2="95.5543" y2="9.6937" gradientTransform="matrix(1 0 0 -1 0 150.7559)">
					<stop  offset="0" style="stop-color:#EF81B2"/>
					<stop  offset="1" style="stop-color:#D41216"/>
				</linearGradient>
				<path style="fill:url(#SVGID_00000056387822621599538170000004675738963467161269_);" d="M92.7,138.5c-1.2-1.7-2.8-3.1-4.6-4
					c-0.9-0.4-1.9-0.7-2.9-0.7c-0.5,0.1-1,0-1.5,0.2c-0.2,0.1-0.5,0.1-0.7,0.2l-0.7,0.3c-0.9,0.4-1.6,1.1-2.4,1.8
					c-0.8,0.7-1.7,1.3-2.5,1.9c-0.9,0.6-1.8,1.2-2.8,1.6c-0.5,0.2-1,0.4-1.5,0.6c-0.3,0.1-0.6,0.2-0.8,0.2c-0.2,0-0.3,0.1-0.5,0.1
					c-0.1,0-0.2,0-0.3,0s-0.2,0-0.4,0l0.8-1.6c1,0.9,2.1,1.8,3.2,2.6c1.1,0.8,2.2,1.6,3.4,2.3c1.1,0.7,2.3,1.4,3.6,2
					c1.2,0.6,2.5,1.1,3.8,1.4c1.3,0.3,2.7,0.4,4,0.2c0.7-0.1,1.3-0.3,1.9-0.5c0.3-0.1,0.6-0.3,0.9-0.4c0.3-0.1,0.5-0.4,0.8-0.6
					c0.9-1,1.3-2.4,1.2-3.8C94.2,140.9,93.5,139.7,92.7,138.5z M92.7,138.5c0.8,1.1,1.6,2.3,1.8,3.7c0.3,1.4-0.1,2.9-1,4
					c-0.2,0.3-0.4,0.6-0.8,0.8c-0.3,0.2-0.6,0.4-0.9,0.6c-0.6,0.3-1.3,0.6-2,0.8c-1.4,0.4-2.9,0.4-4.3,0.2c-2.9-0.4-5.6-1.5-8.1-2.9
					c-1.2-0.7-2.4-1.5-3.6-2.4c-1.1-0.9-2.2-1.8-3.3-2.8l0.8-1.6c-0.1,0,0.1,0,0.2,0c0.1,0,0.2,0,0.3,0c0.2,0,0.4-0.1,0.7-0.1
					c0.4-0.1,0.9-0.3,1.4-0.5c0.9-0.4,1.8-0.8,2.7-1.3s1.8-1,2.6-1.6c0.4-0.3,0.8-0.6,1.3-0.8c0.5-0.3,0.9-0.6,1.4-0.7l0.8-0.3
					c0.3-0.1,0.5-0.1,0.8-0.1c0.5-0.1,1.1-0.1,1.6-0.1c1.1,0.1,2.1,0.4,3,0.9C90,135.4,91.5,136.8,92.7,138.5z"/>
			</g>
			<g>
				
					<linearGradient id="SVGID_00000105404624904675646690000006511970928950688640_" gradientUnits="userSpaceOnUse" x1="83.9438" y1="35.1195" x2="100.3381" y2="35.1195" gradientTransform="matrix(1 0 0 -1 0 150.7559)">
					<stop  offset="0" style="stop-color:#EF81B2"/>
					<stop  offset="1" style="stop-color:#D41216"/>
				</linearGradient>
				<path style="fill:url(#SVGID_00000105404624904675646690000006511970928950688640_);" d="M89.3,125.5c-1.6-1.3-2.9-3-3.8-4.9
					c-0.4-1-0.7-2-0.7-3.1c0.1-0.5,0-1.1,0.2-1.6c0.1-0.3,0.1-0.5,0.2-0.8l0.3-0.7c0.2-0.5,0.6-0.9,0.8-1.4c0.3-0.5,0.6-0.8,0.9-1.2
					c0.6-0.8,1.2-1.7,1.8-2.5s1-1.7,1.5-2.6c0.2-0.4,0.4-0.9,0.6-1.3c0.1-0.2,0.1-0.4,0.2-0.7c0-0.1,0-0.2,0.1-0.3
					c0-0.1,0-0.2,0-0.2l1.7-0.7c0.9,1.1,1.7,2.3,2.5,3.5c0.8,1.2,1.5,2.4,2.1,3.7c1.2,2.6,2.1,5.4,2.3,8.3c0.1,1.4-0.1,2.9-0.5,4.3
					c-0.2,0.7-0.5,1.4-0.9,2c-0.2,0.3-0.4,0.6-0.6,0.9c-0.2,0.3-0.5,0.5-0.8,0.7c-1.2,0.8-2.7,1.1-4.1,0.7
					C91.5,127.2,90.3,126.4,89.3,125.5z M89.3,125.5c1.1,0.9,2.2,1.7,3.6,2c1.3,0.3,2.8,0,3.9-0.9c0.2-0.2,0.5-0.4,0.7-0.7
					c0.2-0.3,0.4-0.6,0.5-0.9c0.3-0.6,0.5-1.2,0.7-1.9c0.3-1.3,0.3-2.7,0.1-4c-0.2-1.3-0.6-2.6-1.1-3.9c-0.5-1.3-1-2.5-1.7-3.7
					c-0.6-1.2-1.3-2.4-2.1-3.5c-0.7-1.2-1.5-2.3-2.3-3.3l1.7-0.7c0,0.2,0,0.3,0,0.4c0,0.1,0,0.2,0,0.3c0,0.2-0.1,0.3-0.1,0.5
					c-0.1,0.3-0.2,0.6-0.3,0.8c-0.2,0.5-0.5,1-0.7,1.5c-0.6,0.9-1.2,1.8-1.8,2.6c-0.7,0.8-1.4,1.6-2.1,2.4c-0.7,0.8-1.4,1.5-1.9,2.3
					l-0.4,0.6c-0.1,0.2-0.2,0.5-0.3,0.7c-0.2,0.5-0.2,1-0.3,1.4c-0.1,1,0.1,2,0.5,3C86.4,122.4,87.7,124.1,89.3,125.5z"/>
			</g>
		</g>
		<g>
			<g>
				<g>
					
						<linearGradient id="SVGID_00000026869548457537118380000003478649089467442592_" gradientUnits="userSpaceOnUse" x1="30.455" y1="116.4576" x2="99.9866" y2="116.4576" gradientTransform="matrix(1 0 0 -1 0 150.7559)">
						<stop  offset="0" style="stop-color:#EF81B2"/>
						<stop  offset="1" style="stop-color:#D41216"/>
					</linearGradient>
					<path style="fill:url(#SVGID_00000026869548457537118380000003478649089467442592_);" d="M80.3-0.6c-1.8,2.2-3.3,4.6-4.5,7.1
						c-1.3,2.5-2.3,5.1-3,7.9c-0.7,2.7-1.2,5.5-1.3,8.3c-0.2,2.8,0.1,5.6,0.4,8.3l0.2,1.2l-1-0.7c-2.8-2-5.8-3.8-8.9-5.4
						c-3.1-1.6-6.3-3-9.5-4.1c-3.2-1.2-6.6-2-10-2.6c-3.4-0.6-6.8-0.8-10.3-0.8l0.7-1.4c4.1,5.7,6.6,12.1,7.8,18.9
						c0.1,0.8,0.2,1.7,0.3,2.6l0.2,1.2l0.2,1.2c0.3,1.6,0.8,3.1,1.5,4.6c1.2,3,3,5.8,5,8.4c4.1,5.1,9.5,9.2,15.7,11.3
						c6.2,2.2,13,2.4,19.4,1.1l-0.1,0c2.9-1.2,5.6-3,7.8-5.3c2.2-2.3,4.1-4.9,5.3-7.9c1.3-2.9,1.8-6.2,2-9.4
						c0.1-3.2-0.2-6.5-0.9-9.7L96.8,32l-0.7-2.4c-0.4-1.6-1.1-3.1-1.8-4.5c-0.7-1.5-1.6-2.8-2.5-4.2c-0.9-1.3-2.1-2.5-3.1-3.8
						c-2.1-2.6-4-5.3-5.6-8.2C81.7,5.9,80.4,2.8,80.3-0.6z M80.3-0.6c0.2,3.3,1.6,6.4,3.2,9.2c1.7,2.8,3.6,5.5,5.8,8
						c1.1,1.2,2.2,2.4,3.3,3.8c1,1.3,1.9,2.7,2.7,4.2s1.4,3,1.9,4.6l0.7,2.4l0.6,2.4c0.7,3.3,1.2,6.6,1.1,10
						c-0.1,3.4-0.7,6.8-1.9,9.9c-1.2,3.2-3.2,6.1-5.6,8.5c-2.4,2.4-5.2,4.4-8.5,5.7l0,0l-0.1,0c-6.7,1.4-13.8,1.2-20.4-1
						c-6.5-2.2-12.4-6.5-16.7-11.9c-2.1-2.7-3.9-5.7-5.2-8.9c-0.7-1.6-1.2-3.3-1.5-5l-0.2-1.3l-0.2-1.3c-0.1-0.8-0.2-1.6-0.3-2.4
						c-1-6.5-3.5-12.8-7.3-18.1l-1-1.4l1.7,0l2.7,0l1.3,0l1.3,0.1c0.9,0.1,1.8,0.2,2.7,0.3l2.6,0.5c3.5,0.7,6.9,1.6,10.2,2.9
						c3.3,1.2,6.5,2.7,9.6,4.4c3.1,1.7,6.1,3.5,8.9,5.7L71,31.2c-0.3-2.8-0.5-5.7-0.2-8.5c0.2-2.8,0.8-5.7,1.6-8.4
						c0.8-2.7,1.9-5.4,3.2-7.9C76.9,3.9,78.5,1.5,80.3-0.6z"/>
				</g>
				<g>
					
						<linearGradient id="SVGID_00000037676551968248393720000015408088492970219186_" gradientUnits="userSpaceOnUse" x1="56.1965" y1="136.4309" x2="72.8135" y2="136.4309" gradientTransform="matrix(1 0 0 -1 0 150.7559)">
						<stop  offset="0" style="stop-color:#EF81B2"/>
						<stop  offset="1" style="stop-color:#D41216"/>
					</linearGradient>
					<path style="fill:url(#SVGID_00000037676551968248393720000015408088492970219186_);" d="M58.1,23.4c-0.5-1.3-0.8-2.7-1.1-4.1
						c-0.3-1.4-0.5-2.8-0.6-4.2c-0.2-2.9-0.1-5.8,0.6-8.7l0.3-1l1,0.4c1.4,0.5,2.8,1.2,4.1,1.9c1.3,0.7,2.6,1.5,3.8,2.5
						c1.2,0.9,2.3,1.9,3.3,3c1,1.1,1.8,2.4,2.5,3.7c-1-1.1-2-2.1-3.2-3c-1.1-0.9-2.3-1.7-3.5-2.5c-1.2-0.7-2.4-1.5-3.7-2.1
						C60.3,8.6,59,8,57.7,7.5L59,6.8c-0.4,1.3-0.6,2.6-0.8,4c-0.2,1.4-0.2,2.7-0.3,4.1C57.9,17.7,58,20.5,58.1,23.4z"/>
				</g>
				<g>
					
						<linearGradient id="SVGID_00000037681281240479124000000015671948230923124917_" gradientUnits="userSpaceOnUse" x1="82.4018" y1="64.9909" x2="91.5211" y2="64.9909" gradientTransform="matrix(1 0 0 -1 0 150.7559)">
						<stop  offset="0" style="stop-color:#EF81B2"/>
						<stop  offset="1" style="stop-color:#D41216"/>
					</linearGradient>
					<path style="fill:url(#SVGID_00000037681281240479124000000015671948230923124917_);" d="M87.6,104.1c0.2-1.6,0.5-3.2,0.8-4.8
						c0.3-1.6,0.4-3.2,0.7-4.8c0.1-1.6,0.3-3.2,0.4-4.8c0-1.6,0.2-3.2,0-4.8c0-3.2-0.5-6.3-1.4-9.3c-0.2-0.8-0.5-1.5-0.8-2.2
						c-0.3-0.7-0.6-1.5-1-2.1c-0.7-1.4-1.7-2.7-2.8-3.9c1.4,0.8,2.7,2,3.7,3.3c0.5,0.7,0.9,1.4,1.4,2.1c0.4,0.8,0.8,1.5,1.1,2.3
						c0.3,0.8,0.6,1.6,0.8,2.4c0.2,0.8,0.4,1.6,0.6,2.4l0.3,2.5c0.1,0.8,0.1,1.7,0.2,2.5c0,0.8,0.1,1.7,0,2.5l-0.1,2.5
						c-0.2,1.6-0.4,3.3-0.8,4.9c-0.4,1.6-0.8,3.2-1.3,4.8C88.7,101.1,88.2,102.6,87.6,104.1z"/>
				</g>
				<g>
					
						<linearGradient id="SVGID_00000116914518873975420840000014313052206540624531_" gradientUnits="userSpaceOnUse" x1="78.5214" y1="63.7009" x2="87.6408" y2="63.7009" gradientTransform="matrix(1 0 0 -1 0 150.7559)">
						<stop  offset="0" style="stop-color:#EF81B2"/>
						<stop  offset="1" style="stop-color:#D41216"/>
					</linearGradient>
					<path style="fill:url(#SVGID_00000116914518873975420840000014313052206540624531_);" d="M79.5,68.3c1.5,0.8,2.7,2.1,3.7,3.4
						c0.6,0.7,0.9,1.4,1.4,2.2c0.4,0.8,0.8,1.5,1.1,2.3c0.3,0.8,0.6,1.6,0.8,2.4c0.2,0.8,0.4,1.7,0.6,2.5l0.3,2.5
						c0.1,0.8,0.1,1.7,0.1,2.6l0,1.3c0,0.4-0.1,0.8-0.1,1.3l-0.2,2.5c-0.1,0.8-0.3,1.7-0.4,2.5c-0.1,0.8-0.2,1.7-0.4,2.5
						c-0.4,1.6-0.8,3.3-1.3,4.9c-0.6,1.6-1.2,3.2-1.8,4.7c0.2-1.7,0.6-3.3,0.9-4.9c0.3-1.6,0.5-3.3,0.8-4.9c0.2-1.6,0.4-3.3,0.5-4.9
						c0-1.6,0.2-3.3,0.1-4.9c0-3.2-0.4-6.5-1.3-9.6c-0.2-0.8-0.5-1.5-0.8-2.3c-0.3-0.7-0.6-1.5-1-2.2C81.7,70.8,80.7,69.4,79.5,68.3
						z"/>
				</g>
			</g>
			<g>
				
					<linearGradient id="SVGID_00000116945947175928237660000008564177221807285686_" gradientUnits="userSpaceOnUse" x1="67.2827" y1="62.7313" x2="86.1656" y2="62.7313" gradientTransform="matrix(1 0 0 -1 0 150.7559)">
					<stop  offset="0" style="stop-color:#EF81B2"/>
					<stop  offset="1" style="stop-color:#D41216"/>
				</linearGradient>
				<path style="fill:url(#SVGID_00000116945947175928237660000008564177221807285686_);" d="M85,92.1c0.2-2.1,0.1-4.2-0.6-6.1
					c-0.4-1-1-1.8-1.7-2.5c-0.4-0.3-0.8-0.7-1.2-0.8c-0.2-0.1-0.4-0.2-0.7-0.3L80.1,82c-0.9-0.3-1.9-0.3-3-0.4
					c-1.1-0.1-2.1-0.2-3.1-0.4c-1.1-0.2-2.1-0.4-3.1-0.7c-0.5-0.2-1-0.4-1.6-0.6c-0.3-0.1-0.5-0.3-0.8-0.4c-0.1-0.1-0.3-0.2-0.4-0.3
					c-0.1-0.1-0.1-0.1-0.2-0.2c-0.1-0.1-0.1-0.1-0.2-0.2l1.7-0.6c0.1,1.3,0.3,2.7,0.5,4c0.2,1.3,0.5,2.7,0.9,4
					c0.3,1.3,0.7,2.6,1.2,3.9c0.5,1.3,1.1,2.5,1.8,3.6c0.7,1.1,1.7,2.1,2.8,2.9c0.5,0.4,1.1,0.7,1.8,1c0.3,0.1,0.6,0.2,1,0.3
					c0.3,0.1,0.7,0.1,1,0.1c1.3-0.1,2.6-0.8,3.4-2C84.5,94.8,84.9,93.4,85,92.1z M85,92.1c-0.1,1.4-0.4,2.8-1.2,4
					c-0.7,1.2-2,2.1-3.5,2.3c-0.4,0.1-0.7,0.1-1.1,0c-0.3-0.1-0.7-0.1-1.1-0.2c-0.7-0.2-1.4-0.5-2-0.8c-1.3-0.7-2.4-1.7-3.3-2.8
					c-1.9-2.2-3.1-4.9-3.9-7.7c-0.4-1.4-0.7-2.8-1-4.2c-0.2-1.4-0.4-2.8-0.5-4.3l1.7-0.6c-0.1-0.1,0.1,0.1,0.1,0.1
					c0.1,0.1,0.2,0.1,0.2,0.2c0.2,0.1,0.4,0.2,0.6,0.4c0.4,0.2,0.8,0.4,1.3,0.6c0.9,0.4,1.9,0.7,2.8,0.9c1,0.3,2,0.5,3,0.7
					c0.5,0.1,1,0.2,1.5,0.3c0.5,0.1,1.1,0.2,1.6,0.5l0.8,0.3c0.2,0.1,0.5,0.3,0.7,0.4c0.5,0.3,0.8,0.7,1.2,1.1
					c0.7,0.8,1.2,1.8,1.5,2.8C85.2,87.9,85.3,90,85,92.1z"/>
			</g>
			<g>
				
					<linearGradient id="SVGID_00000031893902131752138200000003321171285883628172_" gradientUnits="userSpaceOnUse" x1="90.4098" y1="74.4195" x2="109.519" y2="74.4195" gradientTransform="matrix(1 0 0 -1 0 150.7559)">
					<stop  offset="0" style="stop-color:#EF81B2"/>
					<stop  offset="1" style="stop-color:#D41216"/>
				</linearGradient>
				<path style="fill:url(#SVGID_00000031893902131752138200000003321171285883628172_);" d="M91.5,80.2C91.2,78.1,91.4,76,92,74
					c0.3-1,0.9-1.9,1.6-2.7c0.4-0.3,0.8-0.8,1.2-1c0.2-0.1,0.5-0.3,0.7-0.4l0.8-0.3c0.5-0.2,1-0.3,1.6-0.4c0.6-0.1,1-0.2,1.5-0.3
					c1-0.2,2-0.4,3-0.6c1-0.2,1.9-0.6,2.9-0.9c0.5-0.2,0.9-0.4,1.3-0.6c0.2-0.1,0.4-0.2,0.6-0.3c0.1-0.1,0.2-0.1,0.2-0.2
					c0.1,0,0.2-0.2,0.1-0.1l1.7,0.7c-0.1,1.5-0.3,2.8-0.5,4.3c-0.3,1.4-0.6,2.8-1,4.2c-0.9,2.7-2.1,5.4-4,7.6
					c-0.9,1.1-2.1,2.1-3.3,2.8c-0.6,0.4-1.3,0.6-2,0.8c-0.3,0.1-0.7,0.2-1.1,0.2c-0.4,0.1-0.7,0-1.1-0.1c-1.4-0.2-2.7-1.1-3.4-2.3
					C91.9,83,91.6,81.6,91.5,80.2z M91.5,80.2c0.2,1.4,0.5,2.8,1.2,3.9c0.8,1.1,2.1,1.9,3.4,2c0.3,0,0.7,0,1,0
					c0.3-0.1,0.7-0.2,1-0.3c0.6-0.2,1.2-0.5,1.8-0.9c1.1-0.8,2-1.7,2.8-2.8c0.8-1.1,1.4-2.3,1.9-3.6c0.5-1.2,0.9-2.5,1.3-3.8
					c0.4-1.3,0.7-2.6,0.9-4c0.3-1.3,0.5-2.7,0.6-4l1.7,0.7c-0.1,0.2-0.2,0.2-0.3,0.2c-0.1,0.1-0.1,0.1-0.2,0.2
					c-0.1,0.1-0.3,0.2-0.4,0.3c-0.3,0.2-0.5,0.3-0.8,0.4c-0.5,0.2-1,0.4-1.6,0.6c-1.1,0.3-2.1,0.5-3.2,0.7s-2.1,0.2-3.2,0.3
					c-1.1,0.1-2.1,0.1-3,0.3l-0.7,0.2c-0.2,0.1-0.4,0.2-0.7,0.3c-0.5,0.2-0.8,0.5-1.2,0.8c-0.7,0.7-1.3,1.5-1.7,2.5
					C91.5,76,91.3,78.1,91.5,80.2z"/>
			</g>
		</g>
	</g>
	<g>
		<path class="st0" d="M206.1,126.8c-0.8-0.4-1.4-1-1.8-1.8s-0.7-1.6-0.7-2.6s0.2-1.9,0.7-2.6s1.1-1.4,1.8-1.8
			c0.8-0.4,1.6-0.6,2.6-0.6s1.8,0.2,2.6,0.6s1.4,1,1.8,1.8s0.7,1.6,0.7,2.6s-0.2,1.9-0.7,2.6c-0.4,0.8-1,1.4-1.8,1.8
			c-0.8,0.4-1.6,0.7-2.6,0.7S206.8,127.2,206.1,126.8z M210.6,125.8c0.6-0.3,1-0.8,1.3-1.4s0.5-1.3,0.5-2s-0.2-1.4-0.5-2
			c-0.3-0.6-0.8-1.1-1.3-1.4c-0.6-0.3-1.2-0.5-1.9-0.5s-1.4,0.2-1.9,0.5c-0.6,0.3-1,0.8-1.3,1.4s-0.5,1.3-0.5,2s0.2,1.4,0.5,2
			c0.3,0.6,0.8,1.1,1.3,1.4c0.6,0.3,1.2,0.5,1.9,0.5C209.4,126.3,210,126.1,210.6,125.8z"/>
		<path class="st0" d="M226.9,118.2c0.7,0.4,1.3,1,1.7,1.7c0.4,0.7,0.6,1.6,0.6,2.5c0,1-0.2,1.8-0.6,2.6c-0.4,0.8-1,1.3-1.8,1.8
			s-1.6,0.6-2.6,0.6c-1.7,0-2.9-0.6-3.9-1.8c-0.9-1.2-1.4-2.8-1.4-4.8c0-2.1,0.4-3.8,1.2-4.9c0.8-1.1,2.1-1.9,3.8-2.3l4.5-1l0.2,1.2
			l-4.2,1c-1.4,0.3-2.5,0.9-3.1,1.7c-0.7,0.8-1,2-1.1,3.6c0.4-0.8,1-1.4,1.7-1.8c0.7-0.4,1.6-0.7,2.5-0.7
			C225.4,117.6,226.2,117.8,226.9,118.2z M226.1,125.9c0.6-0.3,1-0.8,1.3-1.4s0.5-1.2,0.5-2s-0.1-1.4-0.5-1.9
			c-0.3-0.6-0.7-1-1.3-1.3s-1.2-0.5-1.9-0.5s-1.3,0.2-1.9,0.5s-1,0.7-1.3,1.3s-0.5,1.2-0.5,1.9s0.1,1.4,0.5,2c0.3,0.6,0.7,1,1.3,1.4
			s1.2,0.5,1.9,0.5C224.9,126.3,225.5,126.2,226.1,125.9z"/>
		<path class="st0" d="M235,117.4h1.4v7.9l6.7-7.9h1.2v10h-1.4v-7.9l-6.6,7.9H235L235,117.4L235,117.4z"/>
		<path class="st0" d="M258.8,117.9c0.8,0.4,1.4,1,1.8,1.8c0.4,0.8,0.6,1.6,0.6,2.6c0,1-0.2,1.9-0.6,2.7s-1,1.4-1.8,1.8
			c-0.8,0.4-1.6,0.6-2.5,0.6c-0.8,0-1.5-0.2-2.2-0.5c-0.6-0.3-1.2-0.8-1.6-1.5v5.6h-1.4v-13.7h1.3v2c0.4-0.7,0.9-1.2,1.6-1.5
			s1.4-0.5,2.2-0.5C257.1,117.3,258,117.5,258.8,117.9z M258,125.8c0.6-0.3,1-0.8,1.3-1.4s0.5-1.3,0.5-2s-0.2-1.4-0.5-2
			c-0.3-0.6-0.8-1.1-1.3-1.4s-1.2-0.5-1.9-0.5c-0.7,0-1.4,0.2-1.9,0.5c-0.6,0.3-1,0.8-1.3,1.4s-0.5,1.3-0.5,2s0.2,1.4,0.5,2
			s0.8,1.1,1.3,1.4s1.2,0.5,1.9,0.5C256.8,126.3,257.4,126.1,258,125.8z"/>
		<path class="st0" d="M273.4,118.3c0.7,0.6,1,1.6,1,2.9v6.2h-1.3v-1.6c-0.3,0.5-0.8,0.9-1.3,1.2c-0.6,0.3-1.3,0.4-2.1,0.4
			c-1.1,0-2-0.3-2.7-0.8s-1-1.2-1-2.1c0-0.9,0.3-1.5,0.9-2.1s1.6-0.8,2.9-0.8h3.2v-0.6c0-0.9-0.2-1.5-0.7-2s-1.2-0.7-2.1-0.7
			c-0.6,0-1.2,0.1-1.8,0.3c-0.6,0.2-1.1,0.5-1.5,0.9l-0.6-1c0.5-0.4,1.1-0.8,1.8-1c0.7-0.2,1.5-0.4,2.2-0.4
			C271.7,117.3,272.7,117.6,273.4,118.3z M271.9,125.9c0.5-0.4,1-0.9,1.2-1.5v-1.6H270c-1.7,0-2.6,0.6-2.6,1.8c0,0.6,0.2,1,0.7,1.4
			c0.4,0.3,1.1,0.5,1.9,0.5C270.7,126.4,271.4,126.2,271.9,125.9z"/>
		<path class="st0" d="M281,117.4h1.4v7.9l6.7-7.9h1.2v10h-1.4v-7.9l-6.6,7.9H281V117.4z M283.5,115.3c-0.5-0.4-0.8-1-0.8-1.8h1
			c0,0.5,0.2,0.9,0.5,1.2s0.8,0.4,1.3,0.4s1-0.1,1.3-0.4s0.5-0.7,0.5-1.2h1c0,0.8-0.3,1.4-0.8,1.8s-1.2,0.6-2.1,0.6
			S284,115.7,283.5,115.3z"/>
		<path class="st0" d="M306.5,126.8c-0.8-0.4-1.4-1-1.8-1.8c-0.4-0.8-0.7-1.7-0.7-2.6s0.2-1.9,0.7-2.6s1-1.4,1.8-1.8
			c0.8-0.4,1.7-0.6,2.6-0.6c0.9,0,1.6,0.2,2.3,0.5s1.2,0.8,1.6,1.5l-1,0.7c-0.3-0.5-0.8-0.9-1.2-1.1s-1.1-0.4-1.6-0.4
			c-0.7,0-1.4,0.2-2,0.5c-0.6,0.3-1,0.8-1.4,1.4s-0.5,1.3-0.5,2c0,0.8,0.2,1.4,0.5,2s0.8,1,1.4,1.4s1.2,0.5,2,0.5
			c0.6,0,1.1-0.1,1.6-0.4c0.5-0.2,0.9-0.6,1.2-1.1l1,0.7c-0.4,0.6-0.9,1.1-1.6,1.5c-0.7,0.3-1.5,0.5-2.3,0.5
			C308.1,127.4,307.2,127.2,306.5,126.8z"/>
		<path class="st0" d="M327.1,122.8h-8.4c0.1,1,0.5,1.9,1.2,2.5s1.6,1,2.7,1c0.6,0,1.2-0.1,1.7-0.3s1-0.6,1.4-1l0.8,0.9
			c-0.4,0.5-1,0.9-1.7,1.2s-1.4,0.4-2.2,0.4c-1,0-1.9-0.2-2.7-0.7s-1.4-1-1.9-1.8s-0.7-1.6-0.7-2.6s0.2-1.9,0.6-2.6
			c0.4-0.8,1-1.4,1.8-1.8c0.7-0.4,1.6-0.6,2.5-0.6s1.8,0.2,2.5,0.6c0.7,0.4,1.3,1,1.7,1.8c0.4,0.8,0.6,1.6,0.6,2.6L327.1,122.8z
			 M319.9,119.4c-0.6,0.6-1,1.4-1.1,2.4h7.1c-0.1-1-0.5-1.8-1.1-2.4s-1.5-0.9-2.4-0.9C321.4,118.4,320.6,118.8,319.9,119.4z"/>
		<path class="st0" d="M340.8,117.9c0.8,0.4,1.4,1,1.8,1.8c0.4,0.8,0.6,1.6,0.6,2.6c0,1-0.2,1.9-0.6,2.7s-1,1.4-1.8,1.8
			c-0.8,0.4-1.6,0.6-2.5,0.6c-0.8,0-1.5-0.2-2.2-0.5c-0.6-0.3-1.2-0.8-1.6-1.5v5.6h-1.4v-13.7h1.3v2c0.4-0.7,0.9-1.2,1.6-1.5
			s1.4-0.5,2.2-0.5C339.2,117.3,340,117.5,340.8,117.9z M340.1,125.8c0.6-0.3,1-0.8,1.3-1.4s0.5-1.3,0.5-2s-0.2-1.4-0.5-2
			c-0.3-0.6-0.8-1.1-1.3-1.4s-1.2-0.5-1.9-0.5c-0.7,0-1.4,0.2-1.9,0.5c-0.6,0.3-1,0.8-1.3,1.4s-0.5,1.3-0.5,2s0.2,1.4,0.5,2
			s0.8,1.1,1.3,1.4s1.2,0.5,1.9,0.5C338.9,126.3,339.5,126.1,340.1,125.8z"/>
		<path class="st0" d="M359.5,126.2v3.7h-1.3v-2.5h-9.1v-10h1.4v8.8h6.1v-8.8h1.4v8.8L359.5,126.2L359.5,126.2z"/>
		<path class="st0" d="M373.8,122.8h-8.4c0.1,1,0.5,1.9,1.2,2.5s1.6,1,2.7,1c0.6,0,1.2-0.1,1.7-0.3s1-0.6,1.4-1l0.8,0.9
			c-0.4,0.5-1,0.9-1.7,1.2s-1.4,0.4-2.2,0.4c-1,0-1.9-0.2-2.7-0.7s-1.4-1-1.9-1.8s-0.7-1.6-0.7-2.6s0.2-1.9,0.6-2.6
			c0.4-0.8,1-1.4,1.8-1.8c0.7-0.4,1.6-0.6,2.5-0.6s1.8,0.2,2.5,0.6c0.7,0.4,1.3,1,1.7,1.8c0.4,0.8,0.6,1.6,0.6,2.6L373.8,122.8z
			 M366.5,119.4c-0.6,0.6-1,1.4-1.1,2.4h7.1c-0.1-1-0.5-1.8-1.1-2.4s-1.5-0.9-2.4-0.9C368,118.4,367.2,118.8,366.5,119.4z"/>
		<path class="st0" d="M390.9,117.4v10h-1.2v-7.9l-4,6.7H385l-4-6.7v7.9h-1.2v-10h1.4l4.2,7.2l4.3-7.2H390.9z"/>
		<path class="st0" d="M398.5,125.7c0.2,0.2,0.3,0.4,0.3,0.7c0,0.1,0,0.3-0.1,0.5c0,0.2-0.1,0.4-0.2,0.6l-0.8,2.6h-0.9l0.6-2.8
			c-0.2-0.1-0.4-0.2-0.5-0.4s-0.2-0.4-0.2-0.6c0-0.3,0.1-0.5,0.3-0.7c0.2-0.2,0.4-0.3,0.7-0.3C398.1,125.4,398.3,125.5,398.5,125.7z
			"/>
		<path class="st0" d="M422.3,126.2v3.6H421v-2.4h-9v2.4h-1.3v-3.6h0.6c0.7,0,1.1-0.5,1.4-1.5s0.4-2.3,0.5-4l0.1-3.3h7.4v8.8
			L422.3,126.2L422.3,126.2z M414.1,124.3c-0.2,0.9-0.5,1.6-1,1.9h6.2v-7.6h-4.8l-0.1,2.2C414.4,122.2,414.3,123.4,414.1,124.3z"/>
		<path class="st0" d="M434.3,118.3c0.7,0.6,1,1.6,1,2.9v6.2h-1.3v-1.6c-0.3,0.5-0.8,0.9-1.3,1.2c-0.6,0.3-1.3,0.4-2.1,0.4
			c-1.1,0-2-0.3-2.7-0.8s-1-1.2-1-2.1c0-0.9,0.3-1.5,0.9-2.1s1.6-0.8,2.9-0.8h3.2v-0.6c0-0.9-0.2-1.5-0.7-2s-1.2-0.7-2.1-0.7
			c-0.6,0-1.2,0.1-1.8,0.3c-0.6,0.2-1.1,0.5-1.5,0.9l-0.6-1c0.5-0.4,1.1-0.8,1.8-1c0.7-0.2,1.5-0.4,2.2-0.4
			C432.6,117.3,433.6,117.6,434.3,118.3z M432.8,125.9c0.5-0.4,1-0.9,1.2-1.5v-1.6h-3.1c-1.7,0-2.6,0.6-2.6,1.8c0,0.6,0.2,1,0.7,1.4
			c0.4,0.3,1.1,0.5,1.9,0.5C431.6,126.4,432.2,126.2,432.8,125.9z"/>
		<path class="st0" d="M449.6,117.9c0.8,0.4,1.4,1,1.8,1.8c0.4,0.8,0.6,1.6,0.6,2.6c0,1-0.2,1.9-0.6,2.7s-1,1.4-1.8,1.8
			c-0.8,0.4-1.6,0.6-2.5,0.6c-0.8,0-1.5-0.2-2.2-0.5c-0.6-0.3-1.2-0.8-1.6-1.5v5.6h-1.4v-13.7h1.3v2c0.4-0.7,0.9-1.2,1.6-1.5
			s1.4-0.5,2.2-0.5C448,117.3,448.8,117.5,449.6,117.9z M448.9,125.8c0.6-0.3,1-0.8,1.3-1.4s0.5-1.3,0.5-2s-0.2-1.4-0.5-2
			c-0.3-0.6-0.8-1.1-1.3-1.4s-1.2-0.5-1.9-0.5c-0.7,0-1.4,0.2-1.9,0.5c-0.6,0.3-1,0.8-1.3,1.4s-0.5,1.3-0.5,2s0.2,1.4,0.5,2
			s0.8,1.1,1.3,1.4s1.2,0.5,1.9,0.5C447.6,126.3,448.3,126.1,448.9,125.8z"/>
		<path class="st0" d="M466.1,117.4l-5,11.2c-0.4,0.9-0.9,1.6-1.4,2s-1.2,0.6-1.9,0.6c-0.5,0-0.9-0.1-1.4-0.2s-0.8-0.4-1.1-0.7
			l0.6-1c0.5,0.5,1.1,0.8,1.8,0.8c0.5,0,0.8-0.1,1.2-0.4c0.3-0.2,0.6-0.7,0.9-1.3l0.4-1l-4.5-10h1.4l3.8,8.5l3.8-8.5L466.1,117.4
			L466.1,117.4z"/>
		<path class="st0" d="M471.1,117.4h1.4v7.9l6.7-7.9h1.2v10H479v-7.9l-6.6,7.9h-1.2V117.4z M473.6,115.3c-0.5-0.4-0.8-1-0.8-1.8h1
			c0,0.5,0.2,0.9,0.5,1.2s0.8,0.4,1.3,0.4s1-0.1,1.3-0.4s0.5-0.7,0.5-1.2h1c0,0.8-0.3,1.4-0.8,1.8s-1.2,0.6-2.1,0.6
			S474.1,115.7,473.6,115.3z"/>
		<path class="st0" d="M504.8,126.2v3.6h-1.3v-2.4h-9v2.4h-1.3v-3.6h0.6c0.7,0,1.1-0.5,1.4-1.5c0.2-0.9,0.4-2.3,0.5-4l0.1-3.3h7.4
			v8.8L504.8,126.2L504.8,126.2z M496.6,124.3c-0.2,0.9-0.5,1.6-1,1.9h6.2v-7.6h-4.8l-0.1,2.2C496.9,122.2,496.8,123.4,496.6,124.3z
			"/>
		<path class="st0" d="M518.9,117.4l-5,11.2c-0.4,0.9-0.9,1.6-1.4,2s-1.2,0.6-1.9,0.6c-0.5,0-0.9-0.1-1.3-0.2s-0.8-0.4-1.1-0.7
			l0.6-1c0.5,0.5,1.1,0.8,1.8,0.8c0.5,0,0.8-0.1,1.2-0.4c0.3-0.2,0.6-0.7,0.9-1.3l0.4-1l-4.5-10h1.4l3.8,8.5l3.8-8.5L518.9,117.4
			L518.9,117.4z"/>
		<path class="st0" d="M537.7,117.4v10h-13.8v-10h1.3v8.8h4.9v-8.8h1.3v8.8h4.8v-8.8L537.7,117.4L537.7,117.4z"/>
		<path class="st0" d="M553.3,122.8h-8.4c0.1,1,0.5,1.9,1.2,2.5s1.6,1,2.7,1c0.6,0,1.2-0.1,1.7-0.3s1-0.6,1.3-1l0.8,0.9
			c-0.4,0.5-1,0.9-1.7,1.2s-1.4,0.4-2.2,0.4c-1,0-1.9-0.2-2.7-0.7s-1.4-1-1.8-1.8s-0.7-1.6-0.7-2.6s0.2-1.9,0.6-2.6
			c0.4-0.8,1-1.4,1.8-1.8c0.7-0.4,1.6-0.6,2.5-0.6s1.8,0.2,2.5,0.6c0.7,0.4,1.3,1,1.7,1.8c0.4,0.8,0.6,1.6,0.6,2.6L553.3,122.8z
			 M546,119.4c-0.7,0.6-1,1.4-1.1,2.4h7.1c-0.1-1-0.5-1.8-1.1-2.4s-1.5-0.9-2.4-0.9S546.7,118.8,546,119.4z"/>
		<path class="st0" d="M570.3,117.9c0.8,0.4,1.3,1,1.8,1.8c0.4,0.8,0.7,1.6,0.7,2.6s-0.2,1.9-0.7,2.6c-0.4,0.8-1,1.4-1.8,1.8
			c-0.8,0.4-1.6,0.7-2.5,0.7c-0.9,0-1.7-0.2-2.4-0.6s-1.3-0.9-1.8-1.6c-0.5-0.7-0.7-1.5-0.8-2.4h-2.3v4.4h-1.3v-10h1.3v4.3h2.3
			c0.1-0.9,0.4-1.6,0.8-2.3s1-1.2,1.7-1.6c0.7-0.4,1.5-0.6,2.4-0.6C568.7,117.3,569.6,117.5,570.3,117.9z M569.7,125.8
			c0.5-0.3,1-0.8,1.3-1.4s0.5-1.3,0.5-2s-0.2-1.4-0.5-2c-0.3-0.6-0.8-1.1-1.3-1.4c-0.5-0.3-1.2-0.5-1.8-0.5s-1.3,0.2-1.8,0.5
			c-0.5,0.3-1,0.8-1.3,1.4s-0.5,1.3-0.5,2s0.2,1.4,0.5,2c0.3,0.6,0.8,1.1,1.3,1.4s1.2,0.5,1.8,0.5
			C568.5,126.3,569.1,126.1,569.7,125.8z"/>
	</g>
</g>
</svg>
